<?xml version="1.0" encoding="utf-8"?>
<!-- Generator: Adobe Illustrator 18.1.0, SVG Export Plug-In . SVG Version: 6.00 Build 0)  -->
<!DOCTYPE svg PUBLIC "-//W3C//DTD SVG 1.1//EN" "http://www.w3.org/Graphics/SVG/1.1/DTD/svg11.dtd">
<svg version="1.1" id="Layer_1" xmlns="http://www.w3.org/2000/svg" xmlns:xlink="http://www.w3.org/1999/xlink" x="0px" y="0px" width="3in" height="3in"
	 viewBox="0 0 283.5 283.5" enable-background="new 0 0 283.5 283.5" xml:space="preserve">
<path fill="none" stroke="#000000" stroke-miterlimit="10" d="M225.2,155.8c-6.8-9.3-15.9-16.3-26.9-20.9
	c19.6-12.9,29.5-31.1,29.5-54.4c0-21.9-10.7-39.2-31.9-51.5c-17.2-10.1-37.5-15.2-60.2-15.2c-14.1,0-28.8,1.3-43.7,4
	C68.2,22,57.2,28,57.2,36.6c0,2.5,0.3,5.7,0.8,9.7c0.6,4.7,1,7.8,1.2,9.3c0.5,7.1,0.9,13.4,1.2,18.9l0,0.3l0.1,0.3
	c0.6,1.8,2.4,7.4,6.9,7.4c0.7,0,1.5-0.1,2.3-0.2l0.3-0.1c15.9-5,28.6-7.6,37.7-7.6c21.1,0,31.4,6.8,31.4,20.7
	c0,5.1-1.6,9.2-4.9,12.5c-3.3,3.3-7.3,4.9-12.3,4.9c-4.2,0-10.7-0.6-19.3-1.7c-9-1.1-15.6-1.7-20.2-1.7c-4.3,0-7.4,2.4-8.9,6.8
	c-1.7,5.4-2.5,18.1-2.5,38.7c0,3,1.4,8.3,10.9,9.3c0.5,0.1,1.4,0.2,13.7,0.2c1.8,0,5.4-0.1,10.8-0.4c5.3-0.3,9.7-0.4,12.9-0.4
	c34.1,0,34.1,13.6,34.1,18.1c0,15.6-11.8,23.2-36.1,23.2c-7.8,0-17.6-2.1-29-6.4c-8.5-3.1-14.6-4.6-18.9-4.6c-5.4,0-7.4,2.5-8.1,4.6
	l-0.1,0.2c-2.6,9.4-4.5,16.7-5.5,21.7c-3.6,9.8-6.2,16.9-8.1,21.8c-0.6,1.9-0.9,3.3-0.9,4.4c0,4.6,5.3,10,43.8,18
	c12.9,2.8,29.5,4.2,49.4,4.2c26.1,0,48.2-5.9,65.7-17.4c20.9-13.6,31.4-33.3,31.4-58.5C237,179,233,166.5,225.2,155.8z M209.7,46.6
	c-0.6,1.1-1.3,2.2-1.9,3.4l4.4-0.3c1.2,1.6,2.4,3.2,3.4,4.9c-0.4,0.3-0.9,0.5-1.4,0.5l-9.3,0.7c-1.9,3.8-3.6,7.6-5.1,11.5l5.9-1
	c1.5-0.3,2.9,0.8,3.2,2.3c0.3,1.5-0.8,2.9-2.3,3.2l-9.2,1.6c-1.5,3.9-2.8,7.9-4,11.9l5.8-1.6c0.2-0.1,0.5-0.1,0.7-0.1
	c1.2,0,2.3,0.8,2.7,2c0.4,1.5-0.5,3-1.9,3.4l-9,2.5c-1.1,4.1-2,8.1-2.8,12.3l5.6-2.1c1.4-0.5,3,0.2,3.6,1.6c0.5,1.4-0.2,3-1.6,3.6
	l-8.7,3.3c-0.7,4.1-1.2,8.3-1.6,12.5l5.3-2.6c1.4-0.7,3-0.1,3.7,1.2c0.7,1.4,0.1,3-1.2,3.7l-8.3,4.1c-0.3,4.2-0.4,8.4-0.4,12.6
	l5-3.1c0.5-0.3,1-0.4,1.5-0.4c0.6,0.2,1.1,0.4,1.7,0.6c0.2,0.2,0.4,0.4,0.6,0.6c0.8,1.3,0.4,3-0.9,3.8l-7.8,4.9
	c0.1,4.2,0.4,8.4,0.8,12.6l4.7-3.6c0.5-0.4,1.1-0.6,1.7-0.6c0.8,0,1.6,0.4,2.2,1.1c0.9,1.2,0.7,3-0.5,3.9l-7.3,5.7
	c0.6,4.2,1.3,8.3,2.1,12.4l4.3-4.1c1.1-1.1,2.9-1,3.9,0.1c1.1,1.1,1,2.9-0.1,3.9l-6.7,6.4c1,4.1,2.1,8.2,3.3,12.2l3.9-4.5
	c1-1.2,2.8-1.3,3.9-0.3c1.2,1,1.3,2.8,0.3,3.9l-6.1,7.1c1.4,4,2.8,7.9,4.5,11.8l3.5-4.9c0.9-1.2,2.6-1.5,3.9-0.6
	c1.2,0.9,1.5,2.6,0.6,3.9l-5.4,7.6c1.7,3.8,3.6,7.6,5.6,11.3l3-5.2c0.8-1.3,2.5-1.8,3.8-1c1.3,0.8,1.8,2.5,1,3.8l-4.6,8.1
	c0.2,0.3,0.4,0.6,0.5,0.9c-1.8,1.6-3.7,3.2-5.8,4.7c-0.2-0.4-0.5-0.8-0.7-1.2l-6.8,2.4c-0.3,0.1-0.6,0.1-0.9,0.1
	c-1.1,0-2.2-0.7-2.6-1.9c-0.5-1.4,0.2-3,1.7-3.5l5.9-2.1c-2.3-4.1-4.4-8.4-6.4-12.6l-7,1.7c-0.2,0.1-0.4,0.1-0.7,0.1
	c-1.2,0-2.4-0.8-2.7-2.1c-0.4-1.5,0.5-3,2-3.4l6-1.5c-1.9-4.4-3.6-8.8-5.1-13.2l-7.2,1c-0.1,0-0.3,0-0.4,0c-1.3,0-2.5-1-2.7-2.4
	c-0.2-1.5,0.8-2.9,2.3-3.1l6.2-0.9c-1.4-4.5-2.7-9.1-3.8-13.7l-7.3,0.3H176c-1.5,0-2.7-1.1-2.8-2.6c-0.1-1.5,1.1-2.8,2.6-2.9
	l6.3-0.3c-1-4.6-1.8-9.3-2.4-14l-7.3-0.4c-1.5-0.1-2.6-1.3-2.6-2.8v-0.1c0.1-1.5,1.4-2.7,2.9-2.6l6.3,0.3c-0.5-4.7-0.9-9.4-1.1-14.1
	l-7.2-1.1c-1.4-0.2-2.4-1.4-2.4-2.8c0-0.1,0-0.3,0-0.4c0.2-1.5,1.6-2.6,3.2-2.3l6.3,0.9c-0.1-4.7,0.1-9.4,0.3-14.2l-7.1-1.8
	c-1.2-0.3-2.1-1.4-2.1-2.7c0-0.2,0-0.5,0.1-0.7c0.4-1.5,1.9-2.4,3.4-2l6.1,1.6c0.4-4.7,1-9.4,1.7-14.1l-6.9-2.5
	c-1.1-0.4-1.8-1.5-1.8-2.6c0-0.3,0.1-0.6,0.2-1c0.5-1.4,2.1-2.2,3.6-1.7l5.9,2.1c0.9-4.6,1.9-9.3,3.1-13.8l-6.6-3.1
	c-1-0.5-1.6-1.5-1.6-2.5c0-0.4,0.1-0.8,0.3-1.2c0.6-1.4,2.3-2,3.7-1.3l5.6,2.7c1.3-4.5,2.8-9,4.4-13.5l-6.2-3.7
	c-0.9-0.5-1.4-1.4-1.4-2.4c0-0.5,0.1-1,0.4-1.4c0.8-1.3,2.5-1.7,3.8-0.9l5.3,3.2c1.7-4.4,3.6-8.7,5.7-13l-5.8-4.3
	c-0.7-0.6-1.1-1.4-1.1-2.2c0-0.6,0.2-1.1,0.6-1.6c0.9-1.2,2.6-1.5,3.9-0.6l5,3.7c1.2-2.3,2.5-4.6,3.8-6.8
	C206.2,43,208,44.8,209.7,46.6z M94.1,70.7c-0.4-0.6-0.7-1.3-0.5-2.1c0.3-1.5,1.7-2.5,3.2-2.3l5.4-0.3c-1.6-3.9-2.7-6.4-4.6-10.2
	l-9.3-0.7c-1.5-0.1-2.7-1.4-2.6-3c0.1-1.5,1.4-2.7,3-2.6l6,0.4c-2-3.7-4.1-7.3-6.3-10.9L79,39.3c-1.5,0-2.8-1.2-2.9-2.7
	c0-1.5,1.2-2.8,2.7-2.9l6-0.2c-1.7-2.6-3.5-5.1-5.4-7.7c2.3-0.6,4.9-1.3,7.8-1.9c1.7,2.3,3.3,4.6,4.8,7l4.6-4.2c1.1-1,2.9-1,3.9,0.2
	c0.5,0.5,0.7,1.2,0.7,1.9c0,0.8-0.3,1.5-0.9,2L95,35.8c2.5,4,4.8,8.2,7,12.3l5-3.7c1.2-0.9,3-0.7,3.9,0.6c0.4,0.5,0.6,1.1,0.6,1.6
	c0,0.9-0.4,1.7-1.1,2.2l-5.8,4.3c2.1,4.3,4,8.6,5.7,13l5.3-3.2c1.3-0.8,3-0.4,3.8,0.9c0.3,0.4,0.4,0.9,0.4,1.4
	c0,0.9-0.5,1.9-1.4,2.4l-3.2,1.9c-2.4-0.2-4.9-0.3-7.5-0.3C103.7,69.3,99.2,69.8,94.1,70.7z M116.4,158.3c0.3-3.4,0.5-6.8,0.6-10.2
	l-7.8-4.9c-1.3-0.8-1.7-2.5-0.9-3.8c0.8-1.3,2.5-1.7,3.8-0.9l5,3.1c0-4.2-0.1-8.4-0.4-12.6l-8.3-4.1c-1.4-0.7-1.9-2.4-1.2-3.7
	c0.7-1.4,2.4-1.9,3.7-1.2l5.3,2.6c-0.2-1.7-0.3-3.3-0.6-5c2.4,0.2,4.4,0.3,6.2,0.3c0.4,0,0.9,0,1.3-0.1c0.2,2,0.5,4,0.6,6l6.1-1.6
	c1.5-0.4,3,0.5,3.4,2c0.1,0.2,0.1,0.5,0.1,0.7c0,1.2-0.9,2.4-2.1,2.7l-7.1,1.8c0.3,4.7,0.4,9.4,0.3,14.2l6.3-0.9
	c1.5-0.2,2.9,0.8,3.2,2.3c0,0.1,0,0.3,0,0.4c0,1.4-1,2.5-2.4,2.8l-7.2,1.1c-0.1,3-0.3,6.1-0.6,9.1c-1.4-0.1-2.9-0.1-4.5-0.1
	C118.5,158.3,117.5,158.3,116.4,158.3z M79.2,256.8c0.4-0.6,0.9-1.1,1.3-1.7l-3.8-8.6c-0.6-1.4,0-3.1,1.4-3.7c1.4-0.6,3,0,3.7,1.4
	l2.5,5.5c2.4-3.5,4.6-7.1,6.7-10.7l-4.6-8.1c-0.8-1.3-0.3-3,1-3.8c1.3-0.8,3-0.3,3.8,1l3,5.2c2-3.7,3.9-7.5,5.6-11.3l-5.4-7.6
	c-0.9-1.3-0.6-3,0.6-3.9c1.3-0.9,3-0.6,3.9,0.6l3.5,4.9c1-2.4,1.9-4.8,2.8-7.2c2.6,0.5,5.1,0.9,7.5,1.1c-1.3,3.6-2.7,7.2-4.2,10.7
	l6,1.5c1.5,0.4,2.4,1.9,2,3.4c-0.3,1.3-1.4,2.1-2.7,2.1c-0.2,0-0.4,0-0.7-0.1l-7-1.7c-2,4.3-4.1,8.5-6.4,12.6l5.9,2.1
	c1.4,0.5,2.2,2.1,1.7,3.5c-0.4,1.1-1.5,1.9-2.6,1.9c-0.3,0-0.6,0-0.9-0.1l-6.8-2.4c-2.4,4.1-4.9,8.1-7.6,12l5.6,2.6
	c1,0.5,1.6,1.4,1.6,2.5c-1.7-0.3-3.3-0.6-4.9-1C87,258.6,82.8,257.6,79.2,256.8z"/>
</svg>
