  0
SECTION
  2
HEADER
  9
$ACADVER
  1
AC1024
  9
$ACADMAINTVER
 70
     6
  9
$DWGCODEPAGE
  3
ANSI_1252
  9
$INSBASE
 10
0.0
 20
0.0
 30
0.0
  9
$EXTMIN
 10
1.000000000000000E+20
 20
1.000000000000000E+20
 30
1.000000000000000E+20
  9
$EXTMAX
 10
-1.000000000000000E+20
 20
-1.000000000000000E+20
 30
-1.000000000000000E+20
  9
$LIMMIN
 10
0.0
 20
0.0
  9
$LIMMAX
 10
12.0
 20
9.0
  9
$ORTHOMODE
 70
     0
  9
$REGENMODE
 70
     1
  9
$FILLMODE
 70
     1
  9
$QTEXTMODE
 70
     0
  9
$MIRRTEXT
 70
     1
  9
$LTSCALE
 40
1.0
  9
$ATTMODE
 70
     1
  9
$TEXTSIZE
 40
0.2
  9
$TRACEWID
 40
0.05
  9
$TEXTSTYLE
  7
Standard
  9
$CLAYER
  8
0
  9
$CELTYPE
  6
ByLayer
  9
$CECOLOR
 62
   256
  9
$CELTSCALE
 40
1.0
  9
$DISPSILH
 70
     0
  9
$DIMSCALE
 40
1.0
  9
$DIMASZ
 40
0.18
  9
$DIMEXO
 40
0.0625
  9
$DIMDLI
 40
0.38
  9
$DIMRND
 40
0.0
  9
$DIMDLE
 40
0.0
  9
$DIMEXE
 40
0.18
  9
$DIMTP
 40
0.0
  9
$DIMTM
 40
0.0
  9
$DIMTXT
 40
0.18
  9
$DIMCEN
 40
0.09
  9
$DIMTSZ
 40
0.0
  9
$DIMTOL
 70
     0
  9
$DIMLIM
 70
     0
  9
$DIMTIH
 70
     1
  9
$DIMTOH
 70
     1
  9
$DIMSE1
 70
     0
  9
$DIMSE2
 70
     0
  9
$DIMTAD
 70
     0
  9
$DIMZIN
 70
     0
  9
$DIMBLK
  1

  9
$DIMASO
 70
     1
  9
$DIMSHO
 70
     1
  9
$DIMPOST
  1

  9
$DIMAPOST
  1

  9
$DIMALT
 70
     0
  9
$DIMALTD
 70
     2
  9
$DIMALTF
 40
25.4
  9
$DIMLFAC
 40
1.0
  9
$DIMTOFL
 70
     0
  9
$DIMTVP
 40
0.0
  9
$DIMTIX
 70
     0
  9
$DIMSOXD
 70
     0
  9
$DIMSAH
 70
     0
  9
$DIMBLK1
  1

  9
$DIMBLK2
  1

  9
$DIMSTYLE
  2
Standard
  9
$DIMCLRD
 70
     0
  9
$DIMCLRE
 70
     0
  9
$DIMCLRT
 70
     0
  9
$DIMTFAC
 40
1.0
  9
$DIMGAP
 40
0.09
  9
$DIMJUST
 70
     0
  9
$DIMSD1
 70
     0
  9
$DIMSD2
 70
     0
  9
$DIMTOLJ
 70
     1
  9
$DIMTZIN
 70
     0
  9
$DIMALTZ
 70
     0
  9
$DIMALTTZ
 70
     0
  9
$DIMUPT
 70
     0
  9
$DIMDEC
 70
     4
  9
$DIMTDEC
 70
     4
  9
$DIMALTU
 70
     2
  9
$DIMALTTD
 70
     2
  9
$DIMTXSTY
  7
Standard
  9
$DIMAUNIT
 70
     0
  9
$DIMADEC
 70
     0
  9
$DIMALTRND
 40
0.0
  9
$DIMAZIN
 70
     0
  9
$DIMDSEP
 70
    46
  9
$DIMATFIT
 70
     3
  9
$DIMFRAC
 70
     0
  9
$DIMLDRBLK
  1

  9
$DIMLUNIT
 70
     2
  9
$DIMLWD
 70
    -2
  9
$DIMLWE
 70
    -2
  9
$DIMTMOVE
 70
     0
  9
$DIMFXL
 40
1.0
  9
$DIMFXLON
 70
     0
  9
$DIMJOGANG
 40
0.7853981633974483
  9
$DIMTFILL
 70
     0
  9
$DIMTFILLCLR
 70
     0
  9
$DIMARCSYM
 70
     0
  9
$DIMLTYPE
  6

  9
$DIMLTEX1
  6

  9
$DIMLTEX2
  6

  9
$DIMTXTDIRECTION
 70
     0
  9
$LUNITS
 70
     2
  9
$LUPREC
 70
     4
  9
$SKETCHINC
 40
0.1
  9
$FILLETRAD
 40
0.5
  9
$AUNITS
 70
     0
  9
$AUPREC
 70
     0
  9
$MENU
  1
.
  9
$ELEVATION
 40
0.0
  9
$PELEVATION
 40
0.0
  9
$THICKNESS
 40
0.0
  9
$LIMCHECK
 70
     0
  9
$CHAMFERA
 40
0.5
  9
$CHAMFERB
 40
0.5
  9
$CHAMFERC
 40
1.0
  9
$CHAMFERD
 40
0.0
  9
$SKPOLY
 70
     0
  9
$TDCREATE
 40
2457103.754526887
  9
$TDUCREATE
 40
2457103.754526887
  9
$TDUPDATE
 40
2457103.754526921
  9
$TDUUPDATE
 40
2457103.754526921
  9
$TDINDWG
 40
0.0000000116
  9
$TDUSRTIMER
 40
0.0000000116
  9
$USRTIMER
 70
     1
  9
$ANGBASE
 50
0.0
  9
$ANGDIR
 70
     0
  9
$PDMODE
 70
     0
  9
$PDSIZE
 40
0.0
  9
$PLINEWID
 40
0.0
  9
$SPLFRAME
 70
     0
  9
$SPLINETYPE
 70
     6
  9
$SPLINESEGS
 70
     8
  9
$HANDSEED
  5
48
  9
$SURFTAB1
 70
     6
  9
$SURFTAB2
 70
     6
  9
$SURFTYPE
 70
     6
  9
$SURFU
 70
     6
  9
$SURFV
 70
     6
  9
$UCSBASE
  2

  9
$UCSNAME
  2

  9
$UCSORG
 10
0.0
 20
0.0
 30
0.0
  9
$UCSXDIR
 10
1.0
 20
0.0
 30
0.0
  9
$UCSYDIR
 10
0.0
 20
1.0
 30
0.0
  9
$UCSORTHOREF
  2

  9
$UCSORTHOVIEW
 70
     0
  9
$UCSORGTOP
 10
0.0
 20
0.0
 30
0.0
  9
$UCSORGBOTTOM
 10
0.0
 20
0.0
 30
0.0
  9
$UCSORGLEFT
 10
0.0
 20
0.0
 30
0.0
  9
$UCSORGRIGHT
 10
0.0
 20
0.0
 30
0.0
  9
$UCSORGFRONT
 10
0.0
 20
0.0
 30
0.0
  9
$UCSORGBACK
 10
0.0
 20
0.0
 30
0.0
  9
$PUCSBASE
  2

  9
$PUCSNAME
  2

  9
$PUCSORG
 10
0.0
 20
0.0
 30
0.0
  9
$PUCSXDIR
 10
1.0
 20
0.0
 30
0.0
  9
$PUCSYDIR
 10
0.0
 20
1.0
 30
0.0
  9
$PUCSORTHOREF
  2

  9
$PUCSORTHOVIEW
 70
     0
  9
$PUCSORGTOP
 10
0.0
 20
0.0
 30
0.0
  9
$PUCSORGBOTTOM
 10
0.0
 20
0.0
 30
0.0
  9
$PUCSORGLEFT
 10
0.0
 20
0.0
 30
0.0
  9
$PUCSORGRIGHT
 10
0.0
 20
0.0
 30
0.0
  9
$PUCSORGFRONT
 10
0.0
 20
0.0
 30
0.0
  9
$PUCSORGBACK
 10
0.0
 20
0.0
 30
0.0
  9
$USERI1
 70
     0
  9
$USERI2
 70
     0
  9
$USERI3
 70
     0
  9
$USERI4
 70
     0
  9
$USERI5
 70
     0
  9
$USERR1
 40
0.0
  9
$USERR2
 40
0.0
  9
$USERR3
 40
0.0
  9
$USERR4
 40
0.0
  9
$USERR5
 40
0.0
  9
$WORLDVIEW
 70
     1
  9
$SHADEDGE
 70
     3
  9
$SHADEDIF
 70
    70
  9
$TILEMODE
 70
     1
  9
$MAXACTVP
 70
    64
  9
$PINSBASE
 10
0.0
 20
0.0
 30
0.0
  9
$PLIMCHECK
 70
     0
  9
$PEXTMIN
 10
1.000000000000000E+20
 20
1.000000000000000E+20
 30
1.000000000000000E+20
  9
$PEXTMAX
 10
-1.000000000000000E+20
 20
-1.000000000000000E+20
 30
-1.000000000000000E+20
  9
$PLIMMIN
 10
0.0
 20
0.0
  9
$PLIMMAX
 10
12.0
 20
9.0
  9
$UNITMODE
 70
     0
  9
$VISRETAIN
 70
     1
  9
$PLINEGEN
 70
     0
  9
$PSLTSCALE
 70
     1
  9
$TREEDEPTH
 70
  3020
  9
$CMLSTYLE
  2
Standard
  9
$CMLJUST
 70
     0
  9
$CMLSCALE
 40
1.0
  9
$PROXYGRAPHICS
 70
     1
  9
$MEASUREMENT
 70
     0
  9
$CELWEIGHT
370
    -1
  9
$ENDCAPS
280
     0
  9
$JOINSTYLE
280
     0
  9
$LWDISPLAY
290
     1
  9
$INSUNITS
 70
     1
  9
$HYPERLINKBASE
  1

  9
$STYLESHEET
  1

  9
$XEDIT
290
     1
  9
$CEPSNTYPE
380
     0
  9
$PSTYLEMODE
290
     1
  9
$FINGERPRINTGUID
  2
{E958B262-84DD-4ECF-BAD2-8D20DC7C85D3}
  9
$VERSIONGUID
  2
{FAEB1C32-E019-11D5-929B-00C0DF256EC4}
  9
$EXTNAMES
290
     1
  9
$PSVPSCALE
 40
0.0
  9
$OLESTARTUP
290
     0
  9
$SORTENTS
280
   127
  9
$INDEXCTL
280
     0
  9
$HIDETEXT
280
     1
  9
$XCLIPFRAME
280
     2
  9
$HALOGAP
280
     0
  9
$OBSCOLOR
 70
   257
  9
$OBSLTYPE
280
     0
  9
$INTERSECTIONDISPLAY
280
     0
  9
$INTERSECTIONCOLOR
 70
   257
  9
$DIMASSOC
280
     2
  9
$PROJECTNAME
  1

  9
$CAMERADISPLAY
290
     0
  9
$LENSLENGTH
 40
50.0
  9
$CAMERAHEIGHT
 40
0.0
  9
$STEPSPERSEC
 40
2.0
  9
$STEPSIZE
 40
6.0
  9
$3DDWFPREC
 40
2.0
  9
$PSOLWIDTH
 40
0.25
  9
$PSOLHEIGHT
 40
4.0
  9
$LOFTANG1
 40
1.570796326794897
  9
$LOFTANG2
 40
1.570796326794897
  9
$LOFTMAG1
 40
0.0
  9
$LOFTMAG2
 40
0.0
  9
$LOFTPARAM
 70
     7
  9
$LOFTNORMALS
280
     1
  9
$LATITUDE
 40
37.795
  9
$LONGITUDE
 40
-122.394
  9
$NORTHDIRECTION
 40
0.0
  9
$TIMEZONE
 70
 -8000
  9
$LIGHTGLYPHDISPLAY
280
     1
  9
$TILEMODELIGHTSYNCH
280
     1
  9
$CMATERIAL
347
3C
  9
$SOLIDHIST
280
     1
  9
$SHOWHIST
280
     1
  9
$DWFFRAME
280
     2
  9
$DGNFRAME
280
     2
  9
$REALWORLDSCALE
290
     1
  9
$INTERFERECOLOR
 62
   256
  9
$CSHADOW
280
     0
  9
$SHADOWPLANELOCATION
 40
0.0
  0
ENDSEC
  0
SECTION
  2
CLASSES
  0
CLASS
  1
ACDBDICTIONARYWDFLT
  2
AcDbDictionaryWithDefault
  3
ObjectDBX Classes
 90
        0
 91
        4
280
     0
281
     0
  0
CLASS
  1
VISUALSTYLE
  2
AcDbVisualStyle
  3
ObjectDBX Classes
 90
     4095
 91
        4
280
     0
281
     0
  0
CLASS
  1
MATERIAL
  2
AcDbMaterial
  3
ObjectDBX Classes
 90
     1153
 91
        4
280
     0
281
     0
  0
CLASS
  1
SUN
  2
AcDbSun
  3
SCENEOE
 90
     1024
 91
        4
280
     0
281
     0
  0
ENDSEC
  0
SECTION
  2
TABLES
  0
TABLE
  2
VPORT
  5
8
330
0
100
AcDbSymbolTable
 70
     1
  0
VPORT
  5
29
330
8
100
AcDbSymbolTableRecord
100
AcDbViewportTableRecord
  2
*Active
 70
     0
 10
0.0
 20
0.0
 11
1.0
 21
1.0
 12
0.0
 22
0.0
 13
0.0
 23
0.0
 14
0.5
 24
0.5
 15
0.5
 25
0.5
 16
0.0
 26
0.0
 36
1.0
 17
4.999919443194448
 27
-4.999919443194448
 37
0.0
 40
9.999838886388897
 41
1.0
 42
50.0
 43
0.0
 44
0.0
 50
0.0
 51
0.0
 71
     0
 72
   100
 73
     1
 74
     3
 75
     0
 76
     0
 77
     0
 78
     0
281
     0
 65
     1
110
0.0
120
0.0
130
0.0
111
1.0
121
0.0
131
0.0
112
0.0
122
1.0
132
0.0
 79
     0
146
0.0
 60
     3
 61
     5
292
     1
282
     1
141
0.0
142
0.0
 63
   250
361
3F
  0
ENDTAB
  0
TABLE
  2
LTYPE
  5
5
330
0
100
AcDbSymbolTable
 70
     1
  0
LTYPE
  5
14
330
5
100
AcDbSymbolTableRecord
100
AcDbLinetypeTableRecord
  2
ByBlock
 70
     0
  3

 72
    65
 73
     0
 40
0.0
  0
LTYPE
  5
15
330
5
100
AcDbSymbolTableRecord
100
AcDbLinetypeTableRecord
  2
ByLayer
 70
     0
  3

 72
    65
 73
     0
 40
0.0
  0
LTYPE
  5
16
330
5
100
AcDbSymbolTableRecord
100
AcDbLinetypeTableRecord
  2
Continuous
 70
     0
  3
Solid line
 72
    65
 73
     0
 40
0.0
  0
ENDTAB
  0
TABLE
  2
LAYER
  5
2
330
0
100
AcDbSymbolTable
 70
     2
  0
LAYER
  5
10
330
2
100
AcDbSymbolTableRecord
100
AcDbLayerTableRecord
  2
0
 70
     0
 62
     7
  6
Continuous
370
    -3
390
F
347
3E
  0
LAYER
  5
40
330
2
100
AcDbSymbolTableRecord
100
AcDbLayerTableRecord
  2
Layer 1
 70
     0
 62
     7
  6
Continuous
370
    -3
390
F
347
3E
  0
ENDTAB
  0
TABLE
  2
STYLE
  5
3
330
0
100
AcDbSymbolTable
 70
     1
  0
STYLE
  5
11
330
3
100
AcDbSymbolTableRecord
100
AcDbTextStyleTableRecord
  2
Standard
 70
     0
 40
0.0
 41
1.0
 50
0.0
 71
     0
 42
0.2
  3
txt
  4

  0
ENDTAB
  0
TABLE
  2
VIEW
  5
6
330
0
100
AcDbSymbolTable
 70
     0
  0
ENDTAB
  0
TABLE
  2
UCS
  5
7
330
0
100
AcDbSymbolTable
 70
     0
  0
ENDTAB
  0
TABLE
  2
APPID
  5
9
330
0
100
AcDbSymbolTable
 70
     1
  0
APPID
  5
12
330
9
100
AcDbSymbolTableRecord
100
AcDbRegAppTableRecord
  2
ACAD
 70
     0
  0
ENDTAB
  0
TABLE
  2
DIMSTYLE
  5
A
330
0
100
AcDbSymbolTable
 70
     1
100
AcDbDimStyleTable
  0
DIMSTYLE
105
27
330
A
100
AcDbSymbolTableRecord
100
AcDbDimStyleTableRecord
  2
Standard
 70
     0
178
     0
340
11
  0
ENDTAB
  0
TABLE
  2
BLOCK_RECORD
  5
1
330
0
100
AcDbSymbolTable
 70
     1
  0
BLOCK_RECORD
  5
1F
330
1
100
AcDbSymbolTableRecord
100
AcDbBlockTableRecord
  2
*Model_Space
340
22
 70
     0
280
     1
281
     0
  0
BLOCK_RECORD
  5
1B
330
1
100
AcDbSymbolTableRecord
100
AcDbBlockTableRecord
  2
*Paper_Space
340
1E
 70
     0
280
     1
281
     0
  0
BLOCK_RECORD
  5
23
330
1
100
AcDbSymbolTableRecord
100
AcDbBlockTableRecord
  2
*Paper_Space0
340
26
 70
     0
280
     1
281
     0
  0
ENDTAB
  0
ENDSEC
  0
SECTION
  2
BLOCKS
  0
BLOCK
  5
20
330
1F
100
AcDbEntity
  8
0
100
AcDbBlockBegin
  2
*Model_Space
 70
     0
 10
0.0
 20
0.0
 30
0.0
  3
*Model_Space
  1

  0
ENDBLK
  5
21
330
1F
100
AcDbEntity
  8
0
100
AcDbBlockEnd
  0
BLOCK
  5
1C
330
1B
100
AcDbEntity
 67
     1
  8
0
100
AcDbBlockBegin
  2
*Paper_Space
 70
     0
 10
0.0
 20
0.0
 30
0.0
  3
*Paper_Space
  1

  0
ENDBLK
  5
1D
330
1B
100
AcDbEntity
 67
     1
  8
0
100
AcDbBlockEnd
  0
BLOCK
  5
24
330
23
100
AcDbEntity
  8
0
100
AcDbBlockBegin
  2
*Paper_Space0
 70
     0
 10
0.0
 20
0.0
 30
0.0
  3
*Paper_Space0
  1

  0
ENDBLK
  5
25
330
23
100
AcDbEntity
  8
0
100
AcDbBlockEnd
  0
ENDSEC
  0
SECTION
  2
ENTITIES
  0
SPLINE
  5
41
330
1F
100
AcDbEntity
  8
Layer 1
 62
   250
420
  1842203
370
    35
100
AcDbSpline
210
0.0
220
0.0
230
1.0
 70
    11
 71
     3
 72
   113
 73
   109
 74
     0
 42
0.0000000001
 43
0.0000000001
 12
1.0
 22
0.0
 32
0.0
 13
1.0
 23
0.0
 33
0.0
 40
0.0
 40
0.0
 40
0.0
 40
0.0
 40
1.0
 40
1.0
 40
1.0
 40
2.0
 40
2.0
 40
2.0
 40
3.0
 40
3.0
 40
3.0
 40
4.0
 40
4.0
 40
4.0
 40
5.0
 40
5.0
 40
5.0
 40
6.0
 40
6.0
 40
6.0
 40
7.0
 40
7.0
 40
7.0
 40
8.0
 40
8.0
 40
8.0
 40
9.0
 40
9.0
 40
9.0
 40
10.0
 40
10.0
 40
10.0
 40
11.0
 40
11.0
 40
11.0
 40
12.0
 40
12.0
 40
12.0
 40
13.0
 40
13.0
 40
13.0
 40
14.0
 40
14.0
 40
14.0
 40
15.0
 40
15.0
 40
15.0
 40
16.0
 40
16.0
 40
16.0
 40
17.0
 40
17.0
 40
17.0
 40
18.0
 40
18.0
 40
18.0
 40
19.0
 40
19.0
 40
19.0
 40
20.0
 40
20.0
 40
20.0
 40
21.0
 40
21.0
 40
21.0
 40
22.0
 40
22.0
 40
22.0
 40
23.0
 40
23.0
 40
23.0
 40
24.0
 40
24.0
 40
24.0
 40
25.0
 40
25.0
 40
25.0
 40
26.0
 40
26.0
 40
26.0
 40
27.0
 40
27.0
 40
27.0
 40
28.0
 40
28.0
 40
28.0
 40
29.0
 40
29.0
 40
29.0
 40
30.0
 40
30.0
 40
30.0
 40
31.0
 40
31.0
 40
31.0
 40
32.0
 40
32.0
 40
32.0
 40
33.0
 40
33.0
 40
33.0
 40
34.0
 40
34.0
 40
34.0
 40
35.0
 40
35.0
 40
35.0
 40
36.0
 40
36.0
 40
36.0
 40
36.0
 10
8.69875023581504
 20
-7.287271686008101
 30
0.0
 10
8.682900675072478
 20
-7.092401033046829
 30
0.0
 10
8.674884805271647
 20
-6.942710737144803
 30
0.0
 10
8.674884805271647
 20
-6.842421275204788
 30
0.0
 10
8.674884805271647
 20
-6.742769439271627
 30
0.0
 10
8.68065380247677
 20
-6.595902915685795
 30
0.0
 10
8.691948891741614
 20
-6.405860002490958
 30
0.0
 10
8.703669065011027
 20
-6.207436861777022
 30
0.0
 10
8.709377335929783
 20
-6.063303021077835
 30
0.0
 10
8.709377335929783
 20
-5.965230068590345
 30
0.0
 10
8.709377335929783
 20
-5.807341724028386
 30
0.0
 10
8.62545360816645
 20
-5.713094527582146
 30
0.0
 10
8.484872255219928
 20
-5.713094527582146
 30
0.0
 10
8.373560972303785
 20
-5.713094527582146
 30
0.0
 10
8.22235251924252
 20
-5.726970484017717
 30
0.0
 10
8.024141920530868
 20
-5.75529929660928
 30
0.0
 10
7.876394865792715
 20
-5.77412444538402
 30
0.0
 10
7.759010954239485
 20
-5.78651260780347
 30
0.0
 10
7.673326164171445
 20
-5.792251241865411
 30
0.0
 10
7.673326164171445
 20
-5.792251241865411
 30
0.0
 10
7.673326164171445
 20
-2.981352898371568
 30
0.0
 10
7.673326164171445
 20
-2.981352898371568
 30
0.0
 10
7.673326164171445
 20
-2.801481638143688
 30
0.0
 10
7.694033827823626
 20
-2.529701143494795
 30
0.0
 10
7.734902618550621
 20
-2.173511110791666
 30
0.0
 10
7.776500124714086
 20
-1.81021610258321
 30
0.0
 10
7.797632872370836
 20
-1.533577505024762
 30
0.0
 10
7.797632872370836
 20
-1.351307556485256
 30
0.0
 10
7.797632872370836
 20
-1.011513621101993
 30
0.0
 10
7.577864441997865
 20
-0.974834944134515
 30
0.0
 10
7.483374340406158
 20
-0.974834944134515
 30
0.0
 10
7.285892457130974
 20
-0.974834944134515
 30
0.0
 10
6.900705622686148
 20
-0.8923990103872711
 30
0.0
 10
6.338562389759219
 20
-0.7298347417748265
 30
0.0
 10
5.556286368741053
 20
-0.5036596881898135
 30
0.0
 10
5.363723314661855
 20
-0.4775170219075269
 30
0.0
 10
5.286904562403786
 20
-0.4775170219075269
 30
0.0
 10
5.184337864724879
 20
-0.4775170219075269
 30
0.0
 10
5.090394299710539
 20
-0.5284663761719615
 30
0.0
 10
5.007685097674611
 20
-0.6289380169710773
 30
0.0
 10
5.007685097674611
 20
-0.6289380169710773
 30
0.0
 10
5.002401910760423
 20
-0.636042992476372
 30
0.0
 10
5.002401910760423
 20
-0.636042992476372
 30
0.0
 10
4.753059778925269
 20
-1.005471355608186
 30
0.0
 10
4.569970025519743
 20
-1.301329822802758
 30
0.0
 10
4.461148520344745
 20
-1.510228247915487
 30
0.0
 10
3.613409562619752
 20
-2.91218565819616
 30
0.0
 10
3.110413732617158
 20
-3.725917895553953
 30
0.0
 10
2.966128076202086
 20
-3.92874369202969
 30
0.0
 10
2.661525023770245
 20
-4.356135295501651
 30
0.0
 10
2.169217020168761
 20
-4.933885184025707
 30
0.0
 10
1.502867479830919
 20
-5.645809802284212
 30
0.0
 10
1.344007514687024
 20
-5.814962872967832
 30
0.0
 10
1.263484458960437
 20
-5.982871054780799
 30
0.0
 10
1.263484458960437
 20
-6.144797697386358
 30
0.0
 10
1.263484458960437
 20
-6.291998215547208
 30
0.0
 10
1.265792057842512
 20
-6.514408239377273
 30
0.0
 10
1.270407255606631
 20
-6.805864050810044
 30
0.0
 10
1.275083179657116
 20
-7.108675677793961
 30
0.0
 10
1.277330052252792
 20
-7.323980726118764
 30
0.0
 10
1.277330052252792
 20
-7.464076268774287
 30
0.0
 10
1.277330052252792
 20
-7.70512926251999
 30
0.0
 10
1.389370050605403
 20
-7.99248604962273
 30
0.0
 10
1.923154107797585
 20
-7.99248604962273
 30
0.0
 10
2.231522189984374
 20
-7.99248604962273
 30
0.0
 10
2.698385879596824
 20
-7.983164564664944
 30
0.0
 10
3.310810477638118
 20
-7.964825226181204
 30
0.0
 10
3.934105080939656
 20
-7.946242982551997
 30
0.0
 10
4.386212282964181
 20
-7.937225129026045
 30
0.0
 10
4.692880029132597
 20
-7.937225129026045
 30
0.0
 10
4.828664005455901
 20
-7.937225129026045
 30
0.0
 10
4.855201392599573
 20
-7.986595599844873
 30
0.0
 10
4.855201392599573
 20
-8.071885669051463
 30
0.0
 10
4.855201392599573
 20
-8.18914812803196
 30
0.0
 10
4.826842216864795
 20
-8.382500623833927
 30
0.0
 10
4.770852580831672
 20
-8.64653851697064
 30
0.0
 10
4.691665503405193
 20
-9.019762273000586
 30
0.0
 10
4.682495834163323
 20
-9.128037241598248
 30
0.0
 10
4.682495834163323
 20
-9.177012991555626
 30
0.0
 10
4.682495834163323
 20
-9.245056795433213
 30
0.0
 10
4.713344787639278
 20
-9.340700696465957
 30
0.0
 10
4.860363126941027
 20
-9.409898299784581
 30
0.0
 10
4.907000914873179
 20
-9.431850852307287
 30
0.0
 10
5.003920067919664
 20
-9.477517019657533
 30
0.0
 10
7.40740575615729
 20
-9.477517019657533
 30
0.0
 10
7.602762219409564
 20
-9.477517019657533
 30
0.0
 10
7.714802217762174
 20
-9.355396457767483
 30
0.0
 10
7.714802217762174
 20
-9.142490097754306
 30
0.0
 10
7.714802217762174
 20
-9.03066264140398
 30
0.0
 10
7.707757968543279
 20
-8.860234318706652
 30
0.0
 10
7.693851648964525
 20
-8.635972143142265
 30
0.0
 10
7.680248960817671
 20
-8.415262455330542
 30
0.0
 10
7.673326164171445
 20
-8.248720614960895
 30
0.0
 10
7.673326164171445
 20
-8.140961819797353
 30
0.0
 10
7.673326164171445
 20
-8.063262536386961
 30
0.0
 10
7.871415310310362
 20
-7.984105822103697
 30
0.0
 10
8.065860879267065
 20
-7.984105822103697
 30
0.0
 10
8.079524293700288
 20
-7.984105822103697
 30
0.0
 10
8.092884076701674
 20
-7.984530906108265
 30
0.0
 10
8.106000954557594
 20
-7.985411437260652
 30
0.0
 10
8.259456280214566
 20
-7.995158006223008
 30
0.0
 10
8.380362316377212
 20
-7.992880770484116
 30
0.0
 10
8.475520407118957
 20
-7.976849030882452
 30
0.0
 10
8.691037997446044
 20
-7.933733367559748
 30
0.0
 10
8.723222929222171
 20
-7.814497304272324
 30
0.0
 10
8.723222929222171
 20
-7.747242942117574
 30
0.0
 10
8.723222929222171
 20
-7.644190434147667
 30
0.0
 10
8.714964154275807
 20
-7.489459856476985
 30
0.0
 10
8.69875023581504
 20
-7.287271686008101
 30
0.0
  0
SPLINE
  5
42
330
1F
100
AcDbEntity
  8
Layer 1
 62
   250
420
  1842203
370
    35
100
AcDbSpline
210
0.0
220
0.0
230
1.0
 70
    11
 71
     3
 72
   455
 73
   451
 74
     0
 42
0.0000000001
 43
0.0000000001
 12
1.0
 22
0.0
 32
0.0
 13
1.0
 23
0.0
 33
0.0
 40
0.0
 40
0.0
 40
0.0
 40
0.0
 40
1.0
 40
1.0
 40
1.0
 40
2.0
 40
2.0
 40
2.0
 40
3.0
 40
3.0
 40
3.0
 40
4.0
 40
4.0
 40
4.0
 40
5.0
 40
5.0
 40
5.0
 40
6.0
 40
6.0
 40
6.0
 40
7.0
 40
7.0
 40
7.0
 40
8.0
 40
8.0
 40
8.0
 40
9.0
 40
9.0
 40
9.0
 40
10.0
 40
10.0
 40
10.0
 40
11.0
 40
11.0
 40
11.0
 40
12.0
 40
12.0
 40
12.0
 40
13.0
 40
13.0
 40
13.0
 40
14.0
 40
14.0
 40
14.0
 40
15.0
 40
15.0
 40
15.0
 40
16.0
 40
16.0
 40
16.0
 40
17.0
 40
17.0
 40
17.0
 40
18.0
 40
18.0
 40
18.0
 40
19.0
 40
19.0
 40
19.0
 40
20.0
 40
20.0
 40
20.0
 40
21.0
 40
21.0
 40
21.0
 40
22.0
 40
22.0
 40
22.0
 40
23.0
 40
23.0
 40
23.0
 40
24.0
 40
24.0
 40
24.0
 40
25.0
 40
25.0
 40
25.0
 40
26.0
 40
26.0
 40
26.0
 40
27.0
 40
27.0
 40
27.0
 40
28.0
 40
28.0
 40
28.0
 40
29.0
 40
29.0
 40
29.0
 40
30.0
 40
30.0
 40
30.0
 40
31.0
 40
31.0
 40
31.0
 40
32.0
 40
32.0
 40
32.0
 40
33.0
 40
33.0
 40
33.0
 40
34.0
 40
34.0
 40
34.0
 40
35.0
 40
35.0
 40
35.0
 40
36.0
 40
36.0
 40
36.0
 40
37.0
 40
37.0
 40
37.0
 40
38.0
 40
38.0
 40
38.0
 40
39.0
 40
39.0
 40
39.0
 40
40.0
 40
40.0
 40
40.0
 40
41.0
 40
41.0
 40
41.0
 40
42.0
 40
42.0
 40
42.0
 40
43.0
 40
43.0
 40
43.0
 40
44.0
 40
44.0
 40
44.0
 40
45.0
 40
45.0
 40
45.0
 40
46.0
 40
46.0
 40
46.0
 40
47.0
 40
47.0
 40
47.0
 40
48.0
 40
48.0
 40
48.0
 40
49.0
 40
49.0
 40
49.0
 40
50.0
 40
50.0
 40
50.0
 40
51.0
 40
51.0
 40
51.0
 40
52.0
 40
52.0
 40
52.0
 40
53.0
 40
53.0
 40
53.0
 40
54.0
 40
54.0
 40
54.0
 40
55.0
 40
55.0
 40
55.0
 40
56.0
 40
56.0
 40
56.0
 40
57.0
 40
57.0
 40
57.0
 40
58.0
 40
58.0
 40
58.0
 40
59.0
 40
59.0
 40
59.0
 40
60.0
 40
60.0
 40
60.0
 40
61.0
 40
61.0
 40
61.0
 40
62.0
 40
62.0
 40
62.0
 40
63.0
 40
63.0
 40
63.0
 40
64.0
 40
64.0
 40
64.0
 40
65.0
 40
65.0
 40
65.0
 40
66.0
 40
66.0
 40
66.0
 40
67.0
 40
67.0
 40
67.0
 40
68.0
 40
68.0
 40
68.0
 40
69.0
 40
69.0
 40
69.0
 40
70.0
 40
70.0
 40
70.0
 40
71.0
 40
71.0
 40
71.0
 40
72.0
 40
72.0
 40
72.0
 40
73.0
 40
73.0
 40
73.0
 40
74.0
 40
74.0
 40
74.0
 40
75.0
 40
75.0
 40
75.0
 40
76.0
 40
76.0
 40
76.0
 40
77.0
 40
77.0
 40
77.0
 40
78.0
 40
78.0
 40
78.0
 40
79.0
 40
79.0
 40
79.0
 40
80.0
 40
80.0
 40
80.0
 40
81.0
 40
81.0
 40
81.0
 40
82.0
 40
82.0
 40
82.0
 40
83.0
 40
83.0
 40
83.0
 40
84.0
 40
84.0
 40
84.0
 40
85.0
 40
85.0
 40
85.0
 40
86.0
 40
86.0
 40
86.0
 40
87.0
 40
87.0
 40
87.0
 40
88.0
 40
88.0
 40
88.0
 40
89.0
 40
89.0
 40
89.0
 40
90.0
 40
90.0
 40
90.0
 40
91.0
 40
91.0
 40
91.0
 40
92.0
 40
92.0
 40
92.0
 40
93.0
 40
93.0
 40
93.0
 40
94.0
 40
94.0
 40
94.0
 40
95.0
 40
95.0
 40
95.0
 40
96.0
 40
96.0
 40
96.0
 40
97.0
 40
97.0
 40
97.0
 40
98.0
 40
98.0
 40
98.0
 40
99.0
 40
99.0
 40
99.0
 40
100.0
 40
100.0
 40
100.0
 40
101.0
 40
101.0
 40
101.0
 40
102.0
 40
102.0
 40
102.0
 40
103.0
 40
103.0
 40
103.0
 40
104.0
 40
104.0
 40
104.0
 40
105.0
 40
105.0
 40
105.0
 40
106.0
 40
106.0
 40
106.0
 40
107.0
 40
107.0
 40
107.0
 40
108.0
 40
108.0
 40
108.0
 40
109.0
 40
109.0
 40
109.0
 40
110.0
 40
110.0
 40
110.0
 40
111.0
 40
111.0
 40
111.0
 40
112.0
 40
112.0
 40
112.0
 40
113.0
 40
113.0
 40
113.0
 40
114.0
 40
114.0
 40
114.0
 40
115.0
 40
115.0
 40
115.0
 40
116.0
 40
116.0
 40
116.0
 40
117.0
 40
117.0
 40
117.0
 40
118.0
 40
118.0
 40
118.0
 40
119.0
 40
119.0
 40
119.0
 40
120.0
 40
120.0
 40
120.0
 40
121.0
 40
121.0
 40
121.0
 40
122.0
 40
122.0
 40
122.0
 40
123.0
 40
123.0
 40
123.0
 40
124.0
 40
124.0
 40
124.0
 40
125.0
 40
125.0
 40
125.0
 40
126.0
 40
126.0
 40
126.0
 40
127.0
 40
127.0
 40
127.0
 40
128.0
 40
128.0
 40
128.0
 40
129.0
 40
129.0
 40
129.0
 40
130.0
 40
130.0
 40
130.0
 40
131.0
 40
131.0
 40
131.0
 40
132.0
 40
132.0
 40
132.0
 40
133.0
 40
133.0
 40
133.0
 40
134.0
 40
134.0
 40
134.0
 40
135.0
 40
135.0
 40
135.0
 40
136.0
 40
136.0
 40
136.0
 40
137.0
 40
137.0
 40
137.0
 40
138.0
 40
138.0
 40
138.0
 40
139.0
 40
139.0
 40
139.0
 40
140.0
 40
140.0
 40
140.0
 40
141.0
 40
141.0
 40
141.0
 40
142.0
 40
142.0
 40
142.0
 40
143.0
 40
143.0
 40
143.0
 40
144.0
 40
144.0
 40
144.0
 40
145.0
 40
145.0
 40
145.0
 40
146.0
 40
146.0
 40
146.0
 40
147.0
 40
147.0
 40
147.0
 40
148.0
 40
148.0
 40
148.0
 40
149.0
 40
149.0
 40
149.0
 40
150.0
 40
150.0
 40
150.0
 40
150.0
 10
7.361120939764663
 20
-1.174104457464739
 30
0.0
 10
7.274475915293396
 20
-1.287548751189652
 30
0.0
 10
7.192199388047866
 20
-1.402864173613361
 30
0.0
 10
7.114283767242308
 20
-1.520046929342952
 30
0.0
 10
7.114283767242308
 20
-1.520046929342952
 30
0.0
 10
7.317485307614958
 20
-1.525656520046363
 30
0.0
 10
7.317485307614958
 20
-1.525656520046363
 30
0.0
 10
7.369220308209282
 20
-1.526901408916951
 30
0.0
 10
7.409736127396721
 20
-1.569910801238512
 30
0.0
 10
7.408487443133251
 20
-1.621645801832836
 30
0.0
 10
7.406620109827401
 20
-1.673384597820042
 30
0.0
 10
7.363610717505839
 20
-1.713896621614631
 30
0.0
 10
7.312498161346841
 20
-1.712651732744043
 30
0.0
 10
7.312498161346841
 20
-1.712651732744043
 30
0.0
 10
6.996474771684509
 20
-1.703926124471249
 30
0.0
 10
6.996474771684509
 20
-1.703926124471249
 30
0.0
 10
6.922301408276479
 20
-1.8248511375984
 30
0.0
 10
6.851866506873096
 20
-1.947643484031402
 30
0.0
 10
6.785796307302567
 20
-2.072306959163167
 30
0.0
 10
6.785796307302567
 20
-2.072306959163167
 30
0.0
 10
6.988371607847008
 20
-2.057971760186962
 30
0.0
 10
6.988371607847008
 20
-2.057971760186962
 30
0.0
 10
7.039484164006071
 20
-2.054229502789402
 30
0.0
 10
7.084364685026364
 20
-2.092874193278109
 30
0.0
 10
7.088106942423892
 20
-2.144612989265347
 30
0.0
 10
7.091845404428603
 20
-2.195725545424377
 30
0.0
 10
7.053200713939895
 20
-2.240602271051788
 30
0.0
 10
7.001465713345572
 20
-2.244340733056434
 30
0.0
 10
7.001465713345572
 20
-2.244340733056434
 30
0.0
 10
6.686691007946709
 20
-2.266779095870172
 30
0.0
 10
6.686691007946709
 20
-2.266779095870172
 30
0.0
 10
6.624359270380826
 20
-2.39393993952891
 30
0.0
 10
6.566388439254916
 20
-2.52296811649353
 30
0.0
 10
6.513404754397057
 20
-2.65385983137115
 30
0.0
 10
6.513404754397057
 20
-2.65385983137115
 30
0.0
 10
6.712867832765061
 20
-2.619579842715266
 30
0.0
 10
6.712867832765061
 20
-2.619579842715266
 30
0.0
 10
6.763980388924123
 20
-2.610854234442503
 30
0.0
 10
6.811973132120919
 20
-2.645134223098356
 30
0.0
 10
6.820698740393682
 20
-2.696246779257386
 30
0.0
 10
6.82942814405939
 20
-2.747359335416416
 30
0.0
 10
6.795144360010592
 20
-2.795355874006094
 30
0.0
 10
6.744035599244476
 20
-2.804077686885974
 30
0.0
 10
6.744035599244476
 20
-2.804077686885974
 30
0.0
 10
6.434244244720912
 20
-2.857065167136714
 30
0.0
 10
6.434244244720912
 20
-2.857065167136714
 30
0.0
 10
6.385002817260646
 20
-2.98983180610598
 30
0.0
 10
6.340126091633234
 20
-3.123843333945835
 30
0.0
 10
6.299606477052849
 20
-3.259103546049191
 30
0.0
 10
6.299606477052849
 20
-3.259103546049191
 30
0.0
 10
6.494082409152736
 20
-3.206119861191365
 30
0.0
 10
6.494082409152736
 20
-3.206119861191365
 30
0.0
 10
6.502185572990236
 20
-3.203630083450189
 30
0.0
 10
6.510288736827738
 20
-3.203003843622013
 30
0.0
 10
6.519018140493382
 20
-3.203003843622013
 30
0.0
 10
6.559530164288003
 20
-3.203003843622013
 30
0.0
 10
6.597556205734266
 20
-3.229806908268573
 30
0.0
 10
6.608775387141151
 20
-3.271567616326633
 30
0.0
 10
6.622484346289148
 20
-3.321435283615074
 30
0.0
 10
6.593191503901411
 20
-3.372544044381222
 30
0.0
 10
6.543323836613002
 20
-3.386260594315047
 30
0.0
 10
6.543323836613002
 20
-3.386260594315047
 30
0.0
 10
6.241016996884494
 20
-3.469163361388754
 30
0.0
 10
6.241016996884494
 20
-3.469163361388754
 30
0.0
 10
6.204862084136963
 20
-3.605668462362698
 30
0.0
 10
6.173071873222288
 20
-3.743418452207199
 30
0.0
 10
6.146268808575727
 20
-3.882420921708084
 30
0.0
 10
6.146268808575727
 20
-3.882420921708084
 30
0.0
 10
6.33326402127344
 20
-3.81073733604123
 30
0.0
 10
6.33326402127344
 20
-3.81073733604123
 30
0.0
 10
6.381260559863118
 20
-3.792663675060379
 30
0.0
 10
6.435489133591499
 20
-3.816350722137555
 30
0.0
 10
6.454189034400559
 20
-3.864965909769612
 30
0.0
 10
6.472266490774293
 20
-3.91296244835929
 30
0.0
 10
6.447956999261854
 20
-3.967191022087705
 30
0.0
 10
6.399960460672177
 20
-3.98526847846147
 30
0.0
 10
6.399960460672177
 20
-3.98526847846147
 30
0.0
 10
6.108250357915228
 20
-4.096841643487618
 30
0.0
 10
6.108250357915228
 20
-4.096841643487618
 30
0.0
 10
6.085811995101523
 20
-4.236466557423797
 30
0.0
 10
6.067734538727789
 20
-4.376713915795302
 30
0.0
 10
6.054644228622108
 20
-4.51758371860207
 30
0.0
 10
6.054644228622108
 20
-4.51758371860207
 30
0.0
 10
6.232913833046994
 20
-4.428445120996712
 30
0.0
 10
6.232913833046994
 20
-4.428445120996712
 30
0.0
 10
6.279039242937939
 20
-4.405384313747713
 30
0.0
 10
6.335138945365117
 20
-4.424084214556772
 30
0.0
 10
6.358199752614086
 20
-4.470209624447685
 30
0.0
 10
6.381260559863118
 20
-4.516335034338567
 30
0.0
 10
6.36256445444694
 20
-4.572430941372864
 30
0.0
 10
6.316439044556058
 20
-4.59549933940766
 30
0.0
 10
6.316439044556058
 20
-4.59549933940766
 30
0.0
 10
6.037815456511844
 20
-4.734498013515662
 30
0.0
 10
6.037815456511844
 20
-4.734498013515662
 30
0.0
 10
6.029086052846136
 20
-4.875990260757723
 30
0.0
 10
6.024725146406228
 20
-5.017482507999784
 30
0.0
 10
6.024725146406228
 20
-5.158974755241813
 30
0.0
 10
6.024725146406228
 20
-5.158974755241813
 30
0.0
 10
6.193642902730143
 20
-5.053011180919107
 30
0.0
 10
6.193642902730143
 20
-5.053011180919107
 30
0.0
 10
6.237274739486966
 20
-5.025585671837285
 30
0.0
 10
6.294619330784733
 20
-5.038675981942902
 30
0.0
 10
6.322044839866555
 20
-5.082307818699725
 30
0.0
 10
6.350096588776585
 20
-5.125935860063667
 30
0.0
 10
6.336383834235706
 20
-5.183910486582523
 30
0.0
 10
6.292751997478819
 20
-5.211332200271463
 30
0.0
 10
6.292751997478819
 20
-5.211332200271463
 30
0.0
 10
6.029708497281462
 20
-5.37713773441894
 30
0.0
 10
6.029708497281462
 20
-5.37713773441894
 30
0.0
 10
6.03469943894246
 20
-5.518007537225707
 30
0.0
 10
6.044047491650549
 20
-5.659495989074854
 30
0.0
 10
6.057760246191492
 20
-5.800369587274503
 30
0.0
 10
6.057760246191492
 20
-5.800369587274503
 30
0.0
 10
6.215462616501468
 20
-5.678199685276796
 30
0.0
 10
6.215462616501468
 20
-5.678199685276796
 30
0.0
 10
6.23228759321885
 20
-5.665109375171179
 30
0.0
 10
6.252858622726642
 20
-5.658877340032474
 30
0.0
 10
6.272807207799171
 20
-5.658877340032474
 30
0.0
 10
6.300855161316319
 20
-5.658877340032474
 30
0.0
 10
6.328280670398205
 20
-5.671341410309883
 30
0.0
 10
6.346358126771938
 20
-5.695028457387059
 30
0.0
 10
6.378148337686615
 20
-5.735544276574561
 30
0.0
 10
6.370667618284441
 20
-5.794759996571124
 30
0.0
 10
6.330148003704055
 20
-5.825927763050474
 30
0.0
 10
6.330148003704055
 20
-5.825927763050474
 30
0.0
 10
6.083318421967464
 20
-6.017283882188096
 30
0.0
 10
6.083318421967464
 20
-6.017283882188096
 30
0.0
 10
6.102018322776524
 20
-6.1575312405596
 30
0.0
 10
6.1257053698537
 20
-6.297152359102897
 30
0.0
 10
6.153130878935522
 20
-6.436151033210868
 30
0.0
 10
6.153130878935522
 20
-6.436151033210868
 30
0.0
 10
6.298361588182261
 20
-6.298397247973486
 30
0.0
 10
6.298361588182261
 20
-6.298397247973486
 30
0.0
 10
6.335761389800379
 20
-6.262872370447045
 30
0.0
 10
6.394977109796942
 20
-6.264739703752895
 30
0.0
 10
6.430501987323384
 20
-6.302139505371014
 30
0.0
 10
6.466034455635588
 20
-6.339539306989133
 30
0.0
 10
6.464789566765
 20
-6.398755026985631
 30
0.0
 10
6.426763525318672
 20
-6.434283699905018
 30
0.0
 10
6.426763525318672
 20
-6.434283699905018
 30
0.0
 10
6.19987873326173
 20
-6.649326866119814
 30
0.0
 10
6.19987873326173
 20
-6.649326866119814
 30
0.0
 10
6.23228759321885
 20
-6.787080651357197
 30
0.0
 10
6.269064950401643
 20
-6.924211992159318
 30
0.0
 10
6.310203214024408
 20
-7.059468408869761
 30
0.0
 10
6.310203214024408
 20
-7.059468408869761
 30
0.0
 10
6.442347408558412
 20
-6.908005664484381
 30
0.0
 10
6.442347408558412
 20
-6.908005664484381
 30
0.0
 10
6.476008748171885
 20
-6.868734734167466
 30
0.0
 10
6.535224468168384
 20
-6.864370032334612
 30
0.0
 10
6.57386915865709
 20
-6.898653816383346
 30
0.0
 10
6.613140088974006
 20
-6.932315155996819
 30
0.0
 10
6.616878550978652
 20
-6.991530875993381
 30
0.0
 10
6.583217211365179
 20
-7.030175566482089
 30
0.0
 10
6.583217211365179
 20
-7.030175566482089
 30
0.0
 10
6.377522097858407
 20
-7.267660890903473
 30
0.0
 10
6.377522097858407
 20
-7.267660890903473
 30
0.0
 10
6.423025063314027
 20
-7.401046178915183
 30
0.0
 10
6.4728927306025
 20
-7.533812817884449
 30
0.0
 10
6.527739953373263
 20
-7.664712123547866
 30
0.0
 10
6.527739953373263
 20
-7.664712123547866
 30
0.0
 10
6.644922709102854
 20
-7.499532829228597
 30
0.0
 10
6.644922709102854
 20
-7.499532829228597
 30
0.0
 10
6.67484558671168
 20
-7.457772121170506
 30
0.0
 10
6.732812622444708
 20
-7.447797828634273
 30
0.0
 10
6.775199570331008
 20
-7.477716910850153
 30
0.0
 10
6.816960278389035
 20
-7.507635993066097
 30
0.0
 10
6.826934570925332
 20
-7.565603028799126
 30
0.0
 10
6.797015488709388
 20
-7.607989976685361
 30
0.0
 10
6.797015488709388
 20
-7.607989976685361
 30
0.0
 10
6.615007422279856
 20
-7.865420090786457
 30
0.0
 10
6.615007422279856
 20
-7.865420090786457
 30
0.0
 10
6.67359690244821
 20
-7.993822027922869
 30
0.0
 10
6.736554879842301
 20
-8.120356631753431
 30
0.0
 10
6.8038737636763
 20
-8.245646346713405
 30
0.0
 10
6.8038737636763
 20
-8.245646346713405
 30
0.0
 10
6.904227747295628
 20
-8.06924407559437
 30
0.0
 10
6.904227747295628
 20
-8.06924407559437
 30
0.0
 10
6.929782127678654
 20
-8.024363554574075
 30
0.0
 10
6.987130514369302
 20
-8.008783466727282
 30
0.0
 10
7.032007239996778
 20
-8.034341642503254
 30
0.0
 10
7.076883965624189
 20
-8.059896022886344
 30
0.0
 10
7.092467848863865
 20
-8.117240614184047
 30
0.0
 10
7.066913468480775
 20
-8.162121135204405
 30
0.0
 10
7.066913468480775
 20
-8.162121135204405
 30
0.0
 10
6.910459782434333
 20
-8.435757576980437
 30
0.0
 10
6.910459782434333
 20
-8.435757576980437
 30
0.0
 10
6.980894683837715
 20
-8.557923683585264
 30
0.0
 10
7.056316731509216
 20
-8.677603807841795
 30
0.0
 10
7.13547344579248
 20
-8.796031452441973
 30
0.0
 10
7.13547344579248
 20
-8.796031452441973
 30
0.0
 10
7.218376212866218
 20
-8.610284924007795
 30
0.0
 10
7.218376212866218
 20
-8.610284924007795
 30
0.0
 10
7.239573482202282
 20
-8.563537069681587
 30
0.0
 10
7.295043149408371
 20
-8.542339800345587
 30
0.0
 10
7.34179479912746
 20
-8.56291082985338
 30
0.0
 10
7.38916509788893
 20
-8.584108099189443
 30
0.0
 10
7.410358571832047
 20
-8.639577766395467
 30
0.0
 10
7.38916509788893
 20
-8.686951860549883
 30
0.0
 10
7.38916509788893
 20
-8.686951860549883
 30
0.0
 10
7.260136920924309
 20
-8.974923501302122
 30
0.0
 10
7.260136920924309
 20
-8.974923501302122
 30
0.0
 10
7.311249477083307
 20
-9.045358402705505
 30
0.0
 10
7.364236957334048
 20
-9.113925970803038
 30
0.0
 10
7.417839291234221
 20
-9.182489743507626
 30
0.0
 10
7.379395756569154
 20
-9.219346803941322
 30
0.0
 10
7.340481593184677
 20
-9.255384059509002
 30
0.0
 10
7.301214458260707
 20
-9.290912732428389
 30
0.0
 10
7.262357225769716
 20
-9.290889960070968
 30
0.0
 10
7.223758079995784
 20
-9.290863392320666
 30
0.0
 10
7.186145736375381
 20
-9.29081405221301
 30
0.0
 10
7.147827449675929
 20
-9.241477739930312
 30
0.0
 10
7.110025336410597
 20
-9.191940271823976
 30
0.0
 10
7.073767948054805
 20
-9.141977719713068
 30
0.0
 10
7.073767948054805
 20
-9.141977719713068
 30
0.0
 10
6.853737635571892
 20
-9.244821481073572
 30
0.0
 10
6.853737635571892
 20
-9.244821481073572
 30
0.0
 10
6.840647325466211
 20
-9.251057311605159
 30
0.0
 10
6.827557015360594
 20
-9.253550884739218
 30
0.0
 10
6.813844260819651
 20
-9.253550884739218
 30
0.0
 10
6.778938032335654
 20
-9.253550884739218
 30
0.0
 10
6.745280488115063
 20
-9.233602299666687
 30
0.0
 10
6.72970040026827
 20
-9.199944755446097
 30
0.0
 10
6.707880686496945
 20
-9.153196901119953
 30
0.0
 10
6.727825476176593
 20
-9.097719643128038
 30
0.0
 10
6.774577125895682
 20
-9.07589992935671
 30
0.0
 10
6.774577125895682
 20
-9.07589992935671
 30
0.0
 10
6.964062116334507
 20
-8.986768922537214
 30
0.0
 10
6.964062116334507
 20
-8.986768922537214
 30
0.0
 10
6.873686220644421
 20
-8.855247172438473
 30
0.0
 10
6.787667436001299
 20
-8.720613200163356
 30
0.0
 10
6.707880686496945
 20
-8.584108099189443
 30
0.0
 10
6.707880686496945
 20
-8.584108099189443
 30
0.0
 10
6.479124765741205
 20
-8.665135942171439
 30
0.0
 10
6.479124765741205
 20
-8.665135942171439
 30
0.0
 10
6.469146677812026
 20
-8.668878199569031
 30
0.0
 10
6.458553736233413
 20
-8.67012308843962
 30
0.0
 10
6.447956999261854
 20
-8.67012308843962
 30
0.0
 10
6.409934753208409
 20
-8.67012308843962
 30
0.0
 10
6.37378363585376
 20
-8.646439836755325
 30
0.0
 10
6.36006708592
 20
-8.607791350873738
 30
0.0
 10
6.34261586937441
 20
-8.559172367848733
 30
0.0
 10
6.368170249757436
 20
-8.506192478383822
 30
0.0
 10
6.416793028175322
 20
-8.48873746644535
 30
0.0
 10
6.416793028175322
 20
-8.48873746644535
 30
0.0
 10
6.613758738016386
 20
-8.418925009477228
 30
0.0
 10
6.613758738016386
 20
-8.418925009477228
 30
0.0
 10
6.537091801474298
 20
-8.279303890933996
 30
0.0
 10
6.46540821580738
 20
-8.137185403863695
 30
0.0
 10
6.398715571801588
 20
-7.993199583487607
 30
0.0
 10
6.398715571801588
 20
-7.993199583487607
 30
0.0
 10
6.163101376078936
 20
-8.051170414613518
 30
0.0
 10
6.163101376078936
 20
-8.051170414613518
 30
0.0
 10
6.155620656676698
 20
-8.053037747919431
 30
0.0
 10
6.148143732667405
 20
-8.053663987747576
 30
0.0
 10
6.140663013265231
 20
-8.053663987747576
 30
0.0
 10
6.098902305207139
 20
-8.053663987747576
 30
0.0
 10
6.060876263760877
 20
-8.025612238837546
 30
0.0
 10
6.050279526789254
 20
-7.982602846516048
 30
0.0
 10
6.037815456511844
 20
-7.932738974620457
 30
0.0
 10
6.068356983163051
 20
-7.882248862896721
 30
0.0
 10
6.118843299493905
 20
-7.869784792619248
 30
0.0
 10
6.118843299493905
 20
-7.869784792619248
 30
0.0
 10
6.322044839866555
 20
-7.819294680895512
 30
0.0
 10
6.322044839866555
 20
-7.819294680895512
 30
0.0
 10
6.259713102300672
 20
-7.672815287385302
 30
0.0
 10
6.201746066567644
 20
-7.524464765176361
 30
0.0
 10
6.150011065973319
 20
-7.374243114268623
 30
0.0
 10
6.150011065973319
 20
-7.374243114268623
 30
0.0
 10
5.908787279547225
 20
-7.409149342752684
 30
0.0
 10
5.908787279547225
 20
-7.409149342752684
 30
0.0
 10
5.90442257771437
 20
-7.409775582580828
 30
0.0
 10
5.900061671274462
 20
-7.410398027016154
 30
0.0
 10
5.895074525006281
 20
-7.410398027016154
 30
0.0
 10
5.850194003985988
 20
-7.410398027016154
 30
0.0
 10
5.809681980191431
 20
-7.376740482795563
 30
0.0
 10
5.803446149659781
 20
-7.329992628469356
 30
0.0
 10
5.795965430257606
 20
-7.278880072310358
 30
0.0
 10
5.831494103176929
 20
-7.231505978155942
 30
0.0
 10
5.881984214900664
 20
-7.224025258753768
 30
0.0
 10
5.881984214900664
 20
-7.224025258753768
 30
0.0
 10
6.090799141369638
 20
-7.194109971930769
 30
0.0
 10
6.090799141369638
 20
-7.194109971930769
 30
0.0
 10
6.042802602779961
 20
-7.042020987717117
 30
0.0
 10
6.000415654893725
 20
-6.888683319239996
 30
0.0
 10
5.963638297710933
 20
-6.734100761892285
 30
0.0
 10
5.963638297710933
 20
-6.734100761892285
 30
0.0
 10
5.718676049280192
 20
-6.745319943299171
 30
0.0
 10
5.718676049280192
 20
-6.745319943299171
 30
0.0
 10
5.718676049280192
 20
-6.745319943299171
 30
0.0
 10
5.714311347447337
 20
-6.745319943299171
 30
0.0
 10
5.714311347447337
 20
-6.745319943299171
 30
0.0
 10
5.665069919987071
 20
-6.745319943299171
 30
0.0
 10
5.623931656364307
 20
-6.706675252810463
 30
0.0
 10
5.621438083230248
 20
-6.656185141086727
 30
0.0
 10
5.61894451009619
 20
-6.604450140492403
 30
0.0
 10
5.658834089455485
 20
-6.560814508342633
 30
0.0
 10
5.710572885442692
 20
-6.558947175036784
 30
0.0
 10
5.710572885442692
 20
-6.558947175036784
 30
0.0
 10
5.921877589652842
 20
-6.548972882500487
 30
0.0
 10
5.921877589652842
 20
-6.548972882500487
 30
0.0
 10
5.889464934302903
 20
-6.393145436282253
 30
0.0
 10
5.862039425221017
 20
-6.236691750235747
 30
0.0
 10
5.840223506842637
 20
-6.078993175318717
 30
0.0
 10
5.840223506842637
 20
-6.078993175318717
 30
0.0
 10
5.594635018583689
 20
-6.066525309648362
 30
0.0
 10
5.594635018583689
 20
-6.066525309648362
 30
0.0
 10
5.54477114668816
 20
-6.063409292078977
 30
0.0
 10
5.506126456199453
 20
-6.02226723306333
 30
0.0
 10
5.506126456199453
 20
-5.972403361167802
 30
0.0
 10
5.506126456199453
 20
-5.972403361167802
 30
0.0
 10
5.506126456199453
 20
-5.968038659334947
 30
0.0
 10
5.506126456199453
 20
-5.968038659334947
 30
0.0
 10
5.509242473768773
 20
-5.916307454133506
 30
0.0
 10
5.552874310525661
 20
-5.877040319209537
 30
0.0
 10
5.604605515727039
 20
-5.879530096950713
 30
0.0
 10
5.604605515727039
 20
-5.879530096950713
 30
0.0
 10
5.817158904200723
 20
-5.890749278357534
 30
0.0
 10
5.817158904200723
 20
-5.890749278357534
 30
0.0
 10
5.799707687655134
 20
-5.732428259005178
 30
0.0
 10
5.787862266420105
 20
-5.574103444259939
 30
0.0
 10
5.781630231281337
 20
-5.415156185079439
 30
0.0
 10
5.781630231281337
 20
-5.415156185079439
 30
0.0
 10
5.537916667114129
 20
-5.378382623289528
 30
0.0
 10
5.537916667114129
 20
-5.378382623289528
 30
0.0
 10
5.491165017395041
 20
-5.370905699280171
 30
0.0
 10
5.458129917609775
 20
-5.331012324527994
 30
0.0
 10
5.458129917609775
 20
-5.285505563679493
 30
0.0
 10
5.458129917609775
 20
-5.281148452632467
 30
0.0
 10
5.458752362045038
 20
-5.276157510971404
 30
0.0
 10
5.459378601873246
 20
-5.271796604531496
 30
0.0
 10
5.466855525882538
 20
-5.220684048372433
 30
0.0
 10
5.514848269079334
 20
-5.185777819888373
 30
0.0
 10
5.565960825238396
 20
-5.193258539290611
 30
0.0
 10
5.565960825238396
 20
-5.193258539290611
 30
0.0
 10
5.77664308501322
 20
-5.225048750205288
 30
0.0
 10
5.77664308501322
 20
-5.225048750205288
 30
0.0
 10
5.77477575170737
 20
-5.066101491024724
 30
0.0
 10
5.778514213712016
 20
-4.907158027237106
 30
0.0
 10
5.787243617377725
 20
-4.74820697266366
 30
0.0
 10
5.787243617377725
 20
-4.74820697266366
 30
0.0
 10
5.548509608692807
 20
-4.68774636379654
 30
0.0
 10
5.548509608692807
 20
-4.68774636379654
 30
0.0
 10
5.506748900634715
 20
-4.677153422217896
 30
0.0
 10
5.478074707289423
 20
-4.639127380771568
 30
0.0
 10
5.478074707289423
 20
-4.597989117148804
 30
0.0
 10
5.478074707289423
 20
-4.589885953311335
 30
0.0
 10
5.479323391552893
 20
-4.582405233909128
 30
0.0
 10
5.481190724858743
 20
-4.574302070071628
 30
0.0
 10
5.493658590529098
 20
-4.523815753740774
 30
0.0
 10
5.54477114668816
 20
-4.493896671524861
 30
0.0
 10
5.594635018583689
 20
-4.506360741802302
 30
0.0
 10
5.594635018583689
 20
-4.506360741802302
 30
0.0
 10
5.800952576525722
 20
-4.558721982224834
 30
0.0
 10
5.800952576525722
 20
-4.558721982224834
 30
0.0
 10
5.814665331066665
 20
-4.400397167479596
 30
0.0
 10
5.833369027268606
 20
-4.242698592562534
 30
0.0
 10
5.858297167823489
 20
-4.085618666687852
 30
0.0
 10
5.858297167823489
 20
-4.085618666687852
 30
0.0
 10
5.62704767393369
 20
-4.002097250571733
 30
0.0
 10
5.62704767393369
 20
-4.002097250571733
 30
0.0
 10
5.589025427880245
 20
-3.987762051595528
 30
0.0
 10
5.56533838080307
 20
-3.952233378676205
 30
0.0
 10
5.56533838080307
 20
-3.914207337229878
 30
0.0
 10
5.56533838080307
 20
-3.902988155823025
 30
0.0
 10
5.567209509501866
 20
-3.892395214244381
 30
0.0
 10
5.570947971506512
 20
-3.881798477272822
 30
0.0
 10
5.588402983444984
 20
-3.833801938683144
 30
0.0
 10
5.642009112738104
 20
-3.808247558300054
 30
0.0
 10
5.690624300370161
 20
-3.825698774845644
 30
0.0
 10
5.690624300370161
 20
-3.825698774845644
 30
0.0
 10
5.890087378738166
 20
-3.898004804947791
 30
0.0
 10
5.890087378738166
 20
-3.898004804947791
 30
0.0
 10
5.918761572083522
 20
-3.741551118901317
 30
0.0
 10
5.953045356132256
 20
-3.586346117118345
 30
0.0
 10
5.992934935491551
 20
-3.432386004205929
 30
0.0
 10
5.992934935491551
 20
-3.432386004205929
 30
0.0
 10
5.772278383180366
 20
-3.327044874318517
 30
0.0
 10
5.772278383180366
 20
-3.327044874318517
 30
0.0
 10
5.738620838959839
 20
-3.310838546643515
 30
0.0
 10
5.718676049280192
 20
-3.277181002422957
 30
0.0
 10
5.718676049280192
 20
-3.242274773938896
 30
0.0
 10
5.718676049280192
 20
-3.229180668440365
 30
0.0
 10
5.721792066849576
 20
-3.215471709292336
 30
0.0
 10
5.728027897381162
 20
-3.202381399186719
 30
0.0
 10
5.74984002036666
 20
-3.15562974946763
 30
0.0
 10
5.805939722793839
 20
-3.135684959787982
 30
0.0
 10
5.852691372512928
 20
-3.158127117994602
 30
0.0
 10
5.852691372512928
 20
-3.158127117994602
 30
0.0
 10
6.042802602779961
 20
-3.249129253512927
 30
0.0
 10
6.042802602779961
 20
-3.249129253512927
 30
0.0
 10
6.08705688397211
 20
-3.096414029471099
 30
0.0
 10
6.136298311432376
 20
-2.944951285085655
 30
0.0
 10
6.191153124988967
 20
-2.795355874006094
 30
0.0
 10
6.191153124988967
 20
-2.795355874006094
 30
0.0
 10
5.982960642955255
 20
-2.669443714610826
 30
0.0
 10
5.982960642955255
 20
-2.669443714610826
 30
0.0
 10
5.953667800567518
 20
-2.651988702672354
 30
0.0
 10
5.937461472892517
 20
-2.620824731585854
 30
0.0
 10
5.937461472892517
 20
-2.589038316064091
 30
0.0
 10
5.937461472892517
 20
-2.57283198838909
 30
0.0
 10
5.941822379332489
 20
-2.555999420885913
 30
0.0
 10
5.951170432040578
 20
-2.541041777474414
 30
0.0
 10
5.97797729208002
 20
-2.496783700889382
 30
0.0
 10
6.035321883377787
 20
-2.482448501913145
 30
0.0
 10
6.079576164569872
 20
-2.509251566559705
 30
0.0
 10
6.079576164569872
 20
-2.509251566559705
 30
0.0
 10
6.259090657865346
 20
-2.617708714016502
 30
0.0
 10
6.259090657865346
 20
-2.617708714016502
 30
0.0
 10
6.317683933426647
 20
-2.470606876070998
 30
0.0
 10
6.381886799691261
 20
-2.324746131603201
 30
0.0
 10
6.451073016831175
 20
-2.180760311227082
 30
0.0
 10
6.451073016831175
 20
-2.180760311227082
 30
0.0
 10
6.256597084731288
 20
-2.035533397373257
 30
0.0
 10
6.256597084731288
 20
-2.035533397373257
 30
0.0
 10
6.23228759321885
 20
-2.016829701171315
 30
0.0
 10
6.219201078506114
 20
-1.988781747654167
 30
0.0
 10
6.219201078506114
 20
-1.960107554308843
 30
0.0
 10
6.219201078506114
 20
-1.940785209064489
 30
0.0
 10
6.22543311364482
 20
-1.921462863820136
 30
0.0
 10
6.237900979315175
 20
-1.90463409170984
 30
0.0
 10
6.26844250596638
 20
-1.863495828087075
 30
0.0
 10
6.327035781527617
 20
-1.854766424421398
 30
0.0
 10
6.368796489585645
 20
-1.885934190900781
 30
0.0
 10
6.368796489585645
 20
-1.885934190900781
 30
0.0
 10
6.536469357038971
 20
-2.010597666032579
 30
0.0
 10
6.536469357038971
 20
-2.010597666032579
 30
0.0
 10
6.609394036183531
 20
-1.870350307661106
 30
0.0
 10
6.687309656989153
 20
-1.731351633553103
 30
0.0
 10
6.770834868498153
 20
-1.595468977014452
 30
0.0
 10
6.770834868498153
 20
-1.595468977014452
 30
0.0
 10
6.591942819637942
 20
-1.431538366958685
 30
0.0
 10
6.591942819637942
 20
-1.431538366958685
 30
0.0
 10
6.57137179013015
 20
-1.413457115192038
 30
0.0
 10
6.561401292986735
 20
-1.388528974637156
 30
0.0
 10
6.561401292986735
 20
-1.362970798861184
 30
0.0
 10
6.561401292986735
 20
-1.340532436047478
 30
0.0
 10
6.569504456824236
 20
-1.317467833405565
 30
0.0
 10
6.585710784499237
 20
-1.299394172424713
 30
0.0
 10
6.620617012983298
 20
-1.261368130978386
 30
0.0
 10
6.679828937586914
 20
-1.258874557844328
 30
0.0
 10
6.717854979033241
 20
-1.293780786328389
 30
0.0
 10
6.717854979033241
 20
-1.293780786328389
 30
0.0
 10
6.872437536380887
 20
-1.434650589135156
 30
0.0
 10
6.872437536380887
 20
-1.434650589135156
 30
0.0
 10
6.943035639678898
 20
-1.325684859030003
 30
0.0
 10
7.018294485455835
 20
-1.21891666141287
 30
0.0
 10
7.096103835260251
 20
-1.113655234776299
 30
0.0
 10
7.259571407382468
 20
-1.145601056799807
 30
0.0
 10
7.361120939764663
 20
-1.174104457464739
 30
0.0
 10
7.361120939764663
 20
-1.174104457464739
 30
0.0
  0
SPLINE
  5
43
330
1F
100
AcDbEntity
  8
Layer 1
 62
   250
420
  1842203
370
    35
100
AcDbSpline
210
0.0
220
0.0
230
1.0
 70
    11
 71
     3
 72
   104
 73
   100
 74
     0
 42
0.0000000001
 43
0.0000000001
 12
1.0
 22
0.0
 32
0.0
 13
1.0
 23
0.0
 33
0.0
 40
0.0
 40
0.0
 40
0.0
 40
0.0
 40
1.0
 40
1.0
 40
1.0
 40
2.0
 40
2.0
 40
2.0
 40
3.0
 40
3.0
 40
3.0
 40
4.0
 40
4.0
 40
4.0
 40
5.0
 40
5.0
 40
5.0
 40
6.0
 40
6.0
 40
6.0
 40
7.0
 40
7.0
 40
7.0
 40
8.0
 40
8.0
 40
8.0
 40
9.0
 40
9.0
 40
9.0
 40
10.0
 40
10.0
 40
10.0
 40
11.0
 40
11.0
 40
11.0
 40
12.0
 40
12.0
 40
12.0
 40
13.0
 40
13.0
 40
13.0
 40
14.0
 40
14.0
 40
14.0
 40
15.0
 40
15.0
 40
15.0
 40
16.0
 40
16.0
 40
16.0
 40
17.0
 40
17.0
 40
17.0
 40
18.0
 40
18.0
 40
18.0
 40
19.0
 40
19.0
 40
19.0
 40
20.0
 40
20.0
 40
20.0
 40
21.0
 40
21.0
 40
21.0
 40
22.0
 40
22.0
 40
22.0
 40
23.0
 40
23.0
 40
23.0
 40
24.0
 40
24.0
 40
24.0
 40
25.0
 40
25.0
 40
25.0
 40
26.0
 40
26.0
 40
26.0
 40
27.0
 40
27.0
 40
27.0
 40
28.0
 40
28.0
 40
28.0
 40
29.0
 40
29.0
 40
29.0
 40
30.0
 40
30.0
 40
30.0
 40
31.0
 40
31.0
 40
31.0
 40
32.0
 40
32.0
 40
32.0
 40
33.0
 40
33.0
 40
33.0
 40
33.0
 10
3.301868531970126
 20
-7.778433480954345
 30
0.0
 10
3.301868531970126
 20
-7.778433480954345
 30
0.0
 10
3.158045913488634
 20
-7.575011807793582
 30
0.0
 10
3.158045913488634
 20
-7.575011807793582
 30
0.0
 10
3.128126831272721
 20
-7.532624859907346
 30
0.0
 10
3.138101123808986
 20
-7.474657824174254
 30
0.0
 10
3.179861831867045
 20
-7.444738741958374
 30
0.0
 10
3.222244984360399
 20
-7.414819659742429
 30
0.0
 10
3.280215815486341
 20
-7.424793952278726
 30
0.0
 10
3.310134897702254
 20
-7.466554660336754
 30
0.0
 10
3.310134897702254
 20
-7.466554660336754
 30
0.0
 10
3.427321448824726
 20
-7.631737750048968
 30
0.0
 10
3.427321448824726
 20
-7.631737750048968
 30
0.0
 10
3.482168671595521
 20
-7.500838444385552
 30
0.0
 10
3.532036338883962
 20
-7.368071805416286
 30
0.0
 10
3.577539304339582
 20
-7.234682722011693
 30
0.0
 10
3.577539304339582
 20
-7.234682722011693
 30
0.0
 10
3.371844190832842
 20
-6.997197397590245
 30
0.0
 10
3.371844190832842
 20
-6.997197397590245
 30
0.0
 10
3.338182851219369
 20
-6.958552707101602
 30
0.0
 10
3.341921313224048
 20
-6.899336987105039
 30
0.0
 10
3.381192243540931
 20
-6.865675647491567
 30
0.0
 10
3.419836934029638
 20
-6.831395658835714
 30
0.0
 10
3.479052654026169
 20
-6.835756565275687
 30
0.0
 10
3.512713993639609
 20
-6.875027495592537
 30
0.0
 10
3.512713993639609
 20
-6.875027495592537
 30
0.0
 10
3.644858188173613
 20
-7.026494035370863
 30
0.0
 10
3.644858188173613
 20
-7.026494035370863
 30
0.0
 10
3.685996451796379
 20
-6.891233823267538
 30
0.0
 10
3.722773808979203
 20
-6.754102482465418
 30
0.0
 10
3.75518266893626
 20
-6.616348697228036
 30
0.0
 10
3.75518266893626
 20
-6.616348697228036
 30
0.0
 10
3.528297876879317
 20
-6.40130932640612
 30
0.0
 10
3.528297876879317
 20
-6.40130932640612
 30
0.0
 10
3.490271835433021
 20
-6.365776858093851
 30
0.0
 10
3.489026946562433
 20
-6.306561138097353
 30
0.0
 10
3.52455941487467
 20
-6.269161336479234
 30
0.0
 10
3.531121649195511
 20
-6.262249926011719
 30
0.0
 10
3.539110951246074
 20
-6.257847270249917
 30
0.0
 10
3.547005368474172
 20
-6.253376297415921
 30
0.0
 10
3.574108269159685
 20
-6.252211111796173
 30
0.0
 10
3.60234599232173
 20
-6.250954836746939
 30
0.0
 10
3.631449065064538
 20
-6.249622653839682
 30
0.0
 10
3.640353056803519
 20
-6.253755836705714
 30
0.0
 10
3.64918873147037
 20
-6.258283740433196
 30
0.0
 10
3.65669981401576
 20
-6.265419079081642
 30
0.0
 10
3.65669981401576
 20
-6.265419079081642
 30
0.0
 10
3.801930523262468
 20
-6.403176659711971
 30
0.0
 10
3.801930523262468
 20
-6.403176659711971
 30
0.0
 10
3.812625940449373
 20
-6.348959472162298
 30
0.0
 10
3.821450228937514
 20
-6.294453834752319
 30
0.0
 10
3.830756532323709
 20
-6.240024105200297
 30
0.0
 10
3.910243445789142
 20
-6.236012374906999
 30
0.0
 10
3.995169157277562
 20
-6.231556583644594
 30
0.0
 10
4.085917001471709
 20
-6.226611186698372
 30
0.0
 10
4.070131962408396
 20
-6.323370933243143
 30
0.0
 10
4.053170351546688
 20
-6.419910546999802
 30
0.0
 10
4.03318381254518
 20
-6.515994713608707
 30
0.0
 10
4.03318381254518
 20
-6.515994713608707
 30
0.0
 10
4.24448851675533
 20
-6.525972801537886
 30
0.0
 10
4.24448851675533
 20
-6.525972801537886
 30
0.0
 10
4.296227312742568
 20
-6.527840134843736
 30
0.0
 10
4.336113096708949
 20
-6.57147197160056
 30
0.0
 10
4.333623318967773
 20
-6.623206972194948
 30
0.0
 10
4.331129745833715
 20
-6.673697083918684
 30
0.0
 10
4.28999148221095
 20
-6.712341774407391
 30
0.0
 10
4.240750054750683
 20
-6.712341774407391
 30
0.0
 10
4.240750054750683
 20
-6.712341774407391
 30
0.0
 10
4.236385352917829
 20
-6.712341774407391
 30
0.0
 10
4.236385352917829
 20
-6.712341774407391
 30
0.0
 10
4.236385352917829
 20
-6.712341774407391
 30
0.0
 10
3.99142310448712
 20
-6.701122593000506
 30
0.0
 10
3.99142310448712
 20
-6.701122593000506
 30
0.0
 10
3.954645747304296
 20
-6.855705150348216
 30
0.0
 10
3.912258799418028
 20
-7.009042818825338
 30
0.0
 10
3.864262260828351
 20
-7.161131803038925
 30
0.0
 10
3.864262260828351
 20
-7.161131803038925
 30
0.0
 10
4.073077187297357
 20
-7.19105088525487
 30
0.0
 10
4.073077187297357
 20
-7.19105088525487
 30
0.0
 10
4.123563503628211
 20
-7.198527809264163
 30
0.0
 10
4.159095971940447
 20
-7.245901903418514
 30
0.0
 10
4.151615252538241
 20
-7.297014459577576
 30
0.0
 10
4.145379422006623
 20
-7.343762313903784
 30
0.0
 10
4.104867398212033
 20
-7.37741985812431
 30
0.0
 10
4.059986877191708
 20
-7.37741985812431
 30
0.0
 10
4.054999730923591
 20
-7.37741985812431
 30
0.0
 10
4.050638824483651
 20
-7.376797413689048
 30
0.0
 10
4.046274122650797
 20
-7.376174969253786
 30
0.0
 10
4.046274122650797
 20
-7.376174969253786
 30
0.0
 10
3.805050336224734
 20
-7.341268740769726
 30
0.0
 10
3.805050336224734
 20
-7.341268740769726
 30
0.0
 10
3.755361052402479
 20
-7.485554397184766
 30
0.0
 10
3.699663661622514
 20
-7.628010674222968
 30
0.0
 10
3.640125333229643
 20
-7.768838727707841
 30
0.0
 10
3.534435027195588
 20
-7.771666295416982
 30
0.0
 10
3.422873248348117
 20
-7.774831653094024
 30
0.0
 10
3.305223659292064
 20
-7.778334800738966
 30
0.0
 10
3.304088836815532
 20
-7.778368959275095
 30
0.0
 10
3.303003354446657
 20
-7.778399322418279
 30
0.0
 10
3.301868531970126
 20
-7.778433480954345
 30
0.0
  0
SPLINE
  5
44
330
1F
100
AcDbEntity
  8
Layer 1
 62
   250
420
  1842203
370
    35
100
AcDbSpline
210
0.0
220
0.0
230
1.0
 70
    11
 71
     3
 72
    23
 73
    19
 74
     0
 42
0.0000000001
 43
0.0000000001
 12
1.0
 22
0.0
 32
0.0
 13
1.0
 23
0.0
 33
0.0
 40
0.0
 40
0.0
 40
0.0
 40
0.0
 40
1.0
 40
1.0
 40
1.0
 40
2.0
 40
2.0
 40
2.0
 40
3.0
 40
3.0
 40
3.0
 40
4.0
 40
4.0
 40
4.0
 40
5.0
 40
5.0
 40
5.0
 40
6.0
 40
6.0
 40
6.0
 40
6.0
 10
3.349736027201273
 20
-6.074415931483578
 30
0.0
 10
3.63982549719069
 20
-5.761766646107689
 30
0.0
 10
3.938416647271906
 20
-5.368897936437113
 30
0.0
 10
4.240287016817103
 20
-4.902398604542865
 30
0.0
 10
4.240287016817103
 20
-4.902398604542865
 30
0.0
 10
5.121789789763829
 20
-3.483528923508175
 30
0.0
 10
5.121789789763829
 20
-3.483528923508175
 30
0.0
 10
5.122518505200234
 20
-3.482466213496688
 30
0.0
 10
5.123247220636702
 20
-3.481433866628384
 30
0.0
 10
5.123975936073107
 20
-3.480431882903296
 30
0.0
 10
5.120210906318158
 20
-3.786340550492092
 30
0.0
 10
5.099624695238775
 20
-4.198611308657926
 30
0.0
 10
5.062642386839462
 20
-4.707953035586161
 30
0.0
 10
5.014547168034405
 20
-5.337229178095107
 30
0.0
 10
4.983637488272083
 20
-5.766655112160491
 30
0.0
 10
4.970459884129798
 20
-5.987789883976784
 30
0.0
 10
4.213203093096095
 20
-6.034670577054436
 30
0.0
 10
3.670431545521177
 20
-6.063667378796101
 30
0.0
 10
3.349736027201273
 20
-6.074415931483578
 30
0.0
  0
SPLINE
  5
45
330
1F
100
AcDbEntity
  8
Layer 1
 62
   250
420
  1842203
370
    35
100
AcDbSpline
210
0.0
220
0.0
230
1.0
 70
    11
 71
     3
 72
    92
 73
    88
 74
     0
 42
0.0000000001
 43
0.0000000001
 12
1.0
 22
0.0
 32
0.0
 13
1.0
 23
0.0
 33
0.0
 40
0.0
 40
0.0
 40
0.0
 40
0.0
 40
1.0
 40
1.0
 40
1.0
 40
2.0
 40
2.0
 40
2.0
 40
3.0
 40
3.0
 40
3.0
 40
4.0
 40
4.0
 40
4.0
 40
5.0
 40
5.0
 40
5.0
 40
6.0
 40
6.0
 40
6.0
 40
7.0
 40
7.0
 40
7.0
 40
8.0
 40
8.0
 40
8.0
 40
9.0
 40
9.0
 40
9.0
 40
10.0
 40
10.0
 40
10.0
 40
11.0
 40
11.0
 40
11.0
 40
12.0
 40
12.0
 40
12.0
 40
13.0
 40
13.0
 40
13.0
 40
14.0
 40
14.0
 40
14.0
 40
15.0
 40
15.0
 40
15.0
 40
16.0
 40
16.0
 40
16.0
 40
17.0
 40
17.0
 40
17.0
 40
18.0
 40
18.0
 40
18.0
 40
19.0
 40
19.0
 40
19.0
 40
20.0
 40
20.0
 40
20.0
 40
21.0
 40
21.0
 40
21.0
 40
22.0
 40
22.0
 40
22.0
 40
23.0
 40
23.0
 40
23.0
 40
24.0
 40
24.0
 40
24.0
 40
25.0
 40
25.0
 40
25.0
 40
26.0
 40
26.0
 40
26.0
 40
27.0
 40
27.0
 40
27.0
 40
28.0
 40
28.0
 40
28.0
 40
29.0
 40
29.0
 40
29.0
 40
29.0
 10
3.912258799418028
 20
-3.216151084621115
 30
0.0
 10
3.912258799418028
 20
-3.216151084621115
 30
0.0
 10
4.095535893845047
 20
-3.128419953898419
 30
0.0
 10
4.095535893845047
 20
-3.128419953898419
 30
0.0
 10
4.145718006670528
 20
-3.104398766122691
 30
0.0
 10
4.209832403323159
 20
-3.124386331056229
 30
0.0
 10
4.229988025971409
 20
-3.176242022985309
 30
0.0
 10
4.234253630999633
 20
-3.187216424723899
 30
0.0
 10
4.236385352917829
 20
-3.198469427427887
 30
0.0
 10
4.236385352917829
 20
-3.209296605047117
 30
0.0
 10
4.236385352917829
 20
-3.244202833531145
 30
0.0
 10
4.216440563238182
 20
-3.277860377751704
 30
0.0
 10
4.182783019017623
 20
-3.294066705426705
 30
0.0
 10
4.182783019017623
 20
-3.294066705426705
 30
0.0
 10
3.962122671313588
 20
-3.399407835314149
 30
0.0
 10
3.962122671313588
 20
-3.399407835314149
 30
0.0
 10
4.002016046065765
 20
-3.553367948226533
 30
0.0
 10
4.036299830114531
 20
-3.708572950009537
 30
0.0
 10
4.064974023459856
 20
-3.865026636056012
 30
0.0
 10
4.064974023459856
 20
-3.865026636056012
 30
0.0
 10
4.264437255289222
 20
-3.792721029294399
 30
0.0
 10
4.264437255289222
 20
-3.792721029294399
 30
0.0
 10
4.309548822933354
 20
-3.776368044132387
 30
0.0
 10
4.361195849268531
 20
-3.796459600644819
 30
0.0
 10
4.380709464075479
 20
-3.840296713873043
 30
0.0
 10
4.386715935676214
 20
-3.853790183856262
 30
0.0
 10
4.389723021394952
 20
-3.867006461955623
 30
0.0
 10
4.389723021394952
 20
-3.881229168338099
 30
0.0
 10
4.389723021394952
 20
-3.919255209784394
 30
0.0
 10
4.366035974317743
 20
-3.954783882703749
 30
0.0
 10
4.328009932871448
 20
-3.969119081679954
 30
0.0
 10
4.328009932871448
 20
-3.969119081679954
 30
0.0
 10
4.096764234374533
 20
-4.052644293188954
 30
0.0
 10
4.096764234374533
 20
-4.052644293188954
 30
0.0
 10
4.105733206071726
 20
-4.109159193106957
 30
0.0
 10
4.113896416985652
 20
-4.165755160420794
 30
0.0
 10
4.121311318224105
 20
-4.222431841585194
 30
0.0
 10
4.146667901271893
 20
-4.416247905562659
 30
0.0
 10
4.131535567033843
 20
-4.613234089686276
 30
0.0
 10
4.082702375093516
 20
-4.802503586704189
 30
0.0
 10
4.082702375093516
 20
-4.802503586704189
 30
0.0
 10
4.082702303686979
 20
-4.802503863464236
 30
0.0
 10
4.082702303686979
 20
-4.802503863464236
 30
0.0
 10
4.031308888453501
 20
-4.88194143682198
 30
0.0
 10
3.980063493543028
 20
-4.958479330005538
 30
0.0
 10
3.928909188062105
 20
-5.033499066029856
 30
0.0
 10
3.927421394046048
 20
-4.922840590692159
 30
0.0
 10
3.924073857509906
 20
-4.812178319961548
 30
0.0
 10
3.917245945686177
 20
-4.70151984462385
 30
0.0
 10
3.917245945686177
 20
-4.70151984462385
 30
0.0
 10
3.643187768686288
 20
-4.564798998734532
 30
0.0
 10
3.643187768686288
 20
-4.564798998734532
 30
0.0
 10
3.601545255424435
 20
-4.544024578863306
 30
0.0
 10
3.577144122279279
 20
-4.496308772585853
 30
0.0
 10
3.590978340705693
 20
-4.451875791228731
 30
0.0
 10
3.608603167897594
 20
-4.395268067257788
 30
0.0
 10
3.671409777607791
 20
-4.370100143792819
 30
0.0
 10
3.722147569150995
 20
-4.395466952104933
 30
0.0
 10
3.722147569150995
 20
-4.395466952104933
 30
0.0
 10
3.900417173575881
 20
-4.484605549710258
 30
0.0
 10
3.900417173575881
 20
-4.484605549710258
 30
0.0
 10
3.887326863470264
 20
-4.343735746903491
 30
0.0
 10
3.869249407096499
 20
-4.203488388532018
 30
0.0
 10
3.846811044282793
 20
-4.063867269988721
 30
0.0
 10
3.846811044282793
 20
-4.063867269988721
 30
0.0
 10
3.555100941525876
 20
-3.952290309569658
 30
0.0
 10
3.555100941525876
 20
-3.952290309569658
 30
0.0
 10
3.507104402936199
 20
-3.934216648588807
 30
0.0
 10
3.482791116030815
 20
-3.879988074860393
 30
0.0
 10
3.500872367797462
 20
-3.831991536270715
 30
0.0
 10
3.51956847321364
 20
-3.783372553245743
 30
0.0
 10
3.573797046942022
 20
-3.759685506168567
 30
0.0
 10
3.621793585531699
 20
-3.777762962542333
 30
0.0
 10
3.621793585531699
 20
-3.777762962542333
 30
0.0
 10
3.80878879822938
 20
-3.849446548209186
 30
0.0
 10
3.80878879822938
 20
-3.849446548209186
 30
0.0
 10
3.781989528975734
 20
-3.710444078708302
 30
0.0
 10
3.750199318061025
 20
-3.572690293470887
 30
0.0
 10
3.714044405313495
 20
-3.436185192496974
 30
0.0
 10
3.714044405313495
 20
-3.436185192496974
 30
0.0
 10
3.534491958089041
 20
-3.386943765036708
 30
0.0
 10
3.534491958089041
 20
-3.386943765036708
 30
0.0
 10
3.617998192633568
 20
-3.252408472976906
 30
0.0
 10
3.712901992051167
 20
-3.098433178492899
 30
0.0
 10
3.819522169345265
 20
-2.924471345007382
 30
0.0
 10
3.852367499485633
 20
-3.021147592908398
 30
0.0
 10
3.883880646718775
 20
-3.118222357063715
 30
0.0
 10
3.912258799418028
 20
-3.216151084621115
 30
0.0
  0
ENDSEC
  0
SECTION
  2
OBJECTS
  0
DICTIONARY
  5
C
330
0
100
AcDbDictionary
281
     1
  3
ACAD_GROUP
350
D
  3
ACAD_LAYOUT
350
1A
  3
ACAD_MATERIAL
350
3B
  3
ACAD_MLEADERSTYLE
350
47
  3
ACAD_MLINESTYLE
350
17
  3
ACAD_PLOTSETTINGS
350
19
  3
ACAD_PLOTSTYLENAME
350
E
  3
ACAD_TABLESTYLE
350
46
  3
ACAD_VISUALSTYLE
350
2A
  0
SUN
  5
3F
330
29
100
AcDbSun
 90
        1
290
     0
 63
     7
421
 16777215
 40
1.0
291
     1
 91
  2455826
 92
 54000000
292
     0
 70
     2
 71
   256
280
     1
  0
DICTIONARY
  5
D
102
{ACAD_REACTORS
330
C
102
}
330
C
100
AcDbDictionary
281
     1
  0
DICTIONARY
  5
1A
102
{ACAD_REACTORS
330
C
102
}
330
C
100
AcDbDictionary
281
     1
  3
Layout1
350
1E
  3
Layout2
350
26
  3
Model
350
22
  0
DICTIONARY
  5
3B
102
{ACAD_REACTORS
330
C
102
}
330
C
100
AcDbDictionary
281
     1
  3
ByBlock
350
3D
  3
ByLayer
350
3C
  3
Global
350
3E
  0
DICTIONARY
  5
47
102
{ACAD_REACTORS
330
C
102
}
330
C
100
AcDbDictionary
281
     1
  0
DICTIONARY
  5
17
102
{ACAD_REACTORS
330
C
102
}
330
C
100
AcDbDictionary
281
     1
  3
Standard
350
18
  0
DICTIONARY
  5
19
102
{ACAD_REACTORS
330
C
102
}
330
C
100
AcDbDictionary
281
     1
  0
ACDBDICTIONARYWDFLT
  5
E
102
{ACAD_REACTORS
330
C
102
}
330
C
100
AcDbDictionary
281
     1
  3
Normal
350
F
100
AcDbDictionaryWithDefault
340
F
  0
DICTIONARY
  5
46
102
{ACAD_REACTORS
330
C
102
}
330
C
100
AcDbDictionary
281
     1
  0
DICTIONARY
  5
2A
102
{ACAD_REACTORS
330
C
102
}
330
C
100
AcDbDictionary
281
     1
  3
2dWireframe
350
2F
  3
3D Hidden
350
31
  3
3dWireframe
350
30
  3
Basic
350
32
  3
Brighten
350
36
  3
ColorChange
350
3A
  3
Conceptual
350
34
  3
Dim
350
35
  3
Facepattern
350
39
  3
Flat
350
2B
  3
FlatWithEdges
350
2C
  3
Gouraud
350
2D
  3
GouraudWithEdges
350
2E
  3
Linepattern
350
38
  3
Realistic
350
33
  3
Thicken
350
37
  0
LAYOUT
  5
1E
102
{ACAD_REACTORS
330
1A
102
}
330
1A
100
AcDbPlotSettings
  1

  2
none_device
  4

  6

 40
0.0
 41
0.0
 42
0.0
 43
0.0
 44
0.0
 45
0.0
 46
0.0
 47
0.0
 48
0.0
 49
0.0
140
0.0
141
0.0
142
1.0
143
1.0
 70
   688
 72
     0
 73
     0
 74
     5
  7

 75
    16
 76
     0
 77
     2
 78
   300
147
1.0
148
0.0
149
0.0
100
AcDbLayout
  1
Layout1
 70
     1
 71
     1
 10
0.0
 20
0.0
 11
12.0
 21
9.0
 12
0.0
 22
0.0
 32
0.0
 14
1.000000000000000E+20
 24
1.000000000000000E+20
 34
1.000000000000000E+20
 15
-1.000000000000000E+20
 25
-1.000000000000000E+20
 35
-1.000000000000000E+20
146
0.0
 13
0.0
 23
0.0
 33
0.0
 16
1.0
 26
0.0
 36
0.0
 17
0.0
 27
1.0
 37
0.0
 76
     0
330
1B
  0
LAYOUT
  5
26
102
{ACAD_REACTORS
330
1A
102
}
330
1A
100
AcDbPlotSettings
  1

  2
none_device
  4

  6

 40
0.0
 41
0.0
 42
0.0
 43
0.0
 44
0.0
 45
0.0
 46
0.0
 47
0.0
 48
0.0
 49
0.0
140
0.0
141
0.0
142
1.0
143
1.0
 70
   688
 72
     0
 73
     0
 74
     5
  7

 75
    16
 76
     0
 77
     2
 78
   300
147
1.0
148
0.0
149
0.0
100
AcDbLayout
  1
Layout2
 70
     1
 71
     2
 10
0.0
 20
0.0
 11
0.0
 21
0.0
 12
0.0
 22
0.0
 32
0.0
 14
0.0
 24
0.0
 34
0.0
 15
0.0
 25
0.0
 35
0.0
146
0.0
 13
0.0
 23
0.0
 33
0.0
 16
1.0
 26
0.0
 36
0.0
 17
0.0
 27
1.0
 37
0.0
 76
     0
330
23
  0
LAYOUT
  5
22
102
{ACAD_REACTORS
330
1A
102
}
330
1A
100
AcDbPlotSettings
  1

  2
none_device
  4

  6

 40
0.0
 41
0.0
 42
0.0
 43
0.0
 44
0.0
 45
0.0
 46
0.0
 47
0.0
 48
0.0
 49
0.0
140
0.0
141
0.0
142
1.0
143
1.0
 70
  1712
 72
     0
 73
     0
 74
     0
  7

 75
     0
 76
     0
 77
     2
 78
   300
147
1.0
148
0.0
149
0.0
100
AcDbLayout
  1
Model
 70
     1
 71
     0
 10
0.0
 20
0.0
 11
12.0
 21
9.0
 12
0.0
 22
0.0
 32
0.0
 14
1.000000000000000E+20
 24
1.000000000000000E+20
 34
1.000000000000000E+20
 15
-1.000000000000000E+20
 25
-1.000000000000000E+20
 35
-1.000000000000000E+20
146
0.0
 13
0.0
 23
0.0
 33
0.0
 16
1.0
 26
0.0
 36
0.0
 17
0.0
 27
1.0
 37
0.0
 76
     0
330
1F
331
29
  0
MATERIAL
  5
3D
102
{ACAD_REACTORS
330
3B
102
}
330
3B
100
AcDbMaterial
  1
ByBlock
 72
     1
 94
      127
  0
MATERIAL
  5
3C
102
{ACAD_REACTORS
330
3B
102
}
330
3B
100
AcDbMaterial
  1
ByLayer
 72
     1
 94
      127
  0
MATERIAL
  5
3E
102
{ACAD_REACTORS
330
3B
102
}
330
3B
100
AcDbMaterial
  1
Global
 72
     1
 94
      127
  0
MLINESTYLE
  5
18
102
{ACAD_REACTORS
330
17
102
}
330
17
100
AcDbMlineStyle
  2
Standard
 70
     0
  3

 62
   256
 51
90.0
 52
90.0
 71
     2
 49
0.5
 62
   256
  6
BYLAYER
 49
-0.5
 62
   256
  6
BYLAYER
  0
ACDBPLACEHOLDER
  5
F
102
{ACAD_REACTORS
330
E
102
}
330
E
  0
VISUALSTYLE
  5
2F
102
{ACAD_REACTORS
330
2A
102
}
330
2A
100
AcDbVisualStyle
  2
2dWireframe
 70
     4
177
     2
291
     0
 71
     0
176
     1
 72
     2
176
     1
 73
     0
176
     1
 90
        0
176
     1
 40
-0.6
176
     1
 41
-30.0
176
     1
 62
     5
 63
     7
421
 16777215
176
     1
 74
     1
176
     1
 91
        4
176
     1
 64
     7
176
     1
 65
   257
176
     1
 75
     1
176
     1
175
     1
176
     1
 42
1.0
176
     1
 92
        0
176
     1
 66
   257
176
     1
 43
1.0
176
     1
 76
     1
176
     1
 77
     6
176
     1
 78
     2
176
     1
 67
     7
176
     1
 79
     5
176
     1
170
     0
176
     1
171
     0
176
     1
290
     0
176
     1
 93
        1
176
     1
 44
0.0
176
     1
173
     0
176
     1
  0
VISUALSTYLE
  5
31
102
{ACAD_REACTORS
330
2A
102
}
330
2A
100
AcDbVisualStyle
  2
3D Hidden
 70
     6
177
     2
291
     0
 71
     1
176
     1
 72
     2
176
     1
 73
     2
176
     1
 90
        0
176
     1
 40
-0.6
176
     1
 41
-30.0
176
     1
 62
     5
 63
     7
421
 16777215
176
     1
 74
     2
176
     1
 91
        2
176
     1
 64
     7
176
     1
 65
   257
176
     1
 75
     2
176
     1
175
     1
176
     1
 42
40.0
176
     1
 92
        0
176
     1
 66
   257
176
     1
 43
1.0
176
     1
 76
     1
176
     1
 77
     6
176
     1
 78
     2
176
     1
 67
     7
176
     1
 79
     3
176
     1
170
     0
176
     1
171
     0
176
     1
290
     0
176
     1
 93
        1
176
     1
 44
0.0
176
     1
173
     0
176
     1
  0
VISUALSTYLE
  5
30
102
{ACAD_REACTORS
330
2A
102
}
330
2A
100
AcDbVisualStyle
  2
3dWireframe
 70
     5
177
     2
291
     0
 71
     0
176
     1
 72
     2
176
     1
 73
     0
176
     1
 90
        0
176
     1
 40
-0.6
176
     1
 41
-30.0
176
     1
 62
     5
 63
     7
421
 16777215
176
     1
 74
     1
176
     1
 91
        4
176
     1
 64
     7
176
     1
 65
   257
176
     1
 75
     1
176
     1
175
     1
176
     1
 42
1.0
176
     1
 92
        0
176
     1
 66
   257
176
     1
 43
1.0
176
     1
 76
     1
176
     1
 77
     6
176
     1
 78
     2
176
     1
 67
     7
176
     1
 79
     5
176
     1
170
     0
176
     1
171
     0
176
     1
290
     0
176
     1
 93
        1
176
     1
 44
0.0
176
     1
173
     0
176
     1
  0
VISUALSTYLE
  5
32
102
{ACAD_REACTORS
330
2A
102
}
330
2A
100
AcDbVisualStyle
  2
Basic
 70
     7
177
     2
291
     1
 71
     1
176
     1
 72
     0
176
     1
 73
     1
176
     1
 90
        0
176
     1
 40
-0.6
176
     1
 41
-30.0
176
     1
 62
     5
 63
     7
421
 16777215
176
     1
 74
     0
176
     1
 91
        4
176
     1
 64
     7
176
     1
 65
   257
176
     1
 75
     1
176
     1
175
     1
176
     1
 42
1.0
176
     1
 92
        8
176
     1
 66
     7
176
     1
 43
1.0
176
     1
 76
     1
176
     1
 77
     6
176
     1
 78
     2
176
     1
 67
     7
176
     1
 79
     5
176
     1
170
     0
176
     1
171
     0
176
     1
290
     0
176
     1
 93
        1
176
     1
 44
0.0
176
     1
173
     0
176
     1
  0
VISUALSTYLE
  5
36
102
{ACAD_REACTORS
330
2A
102
}
330
2A
100
AcDbVisualStyle
  2
Brighten
 70
    12
177
     2
291
     1
 71
     2
176
     1
 72
     2
176
     1
 73
     0
176
     1
 90
        0
176
     1
 40
-0.6
176
     1
 41
-30.0
176
     1
 62
     5
 63
     7
421
 16777215
176
     1
 74
     1
176
     1
 91
        4
176
     1
 64
     7
176
     1
 65
   257
176
     1
 75
     1
176
     1
175
     1
176
     1
 42
1.0
176
     1
 92
        8
176
     1
 66
     7
176
     1
 43
1.0
176
     1
 76
     1
176
     1
 77
     6
176
     1
 78
     2
176
     1
 67
     7
176
     1
 79
     5
176
     1
170
     0
176
     1
171
     0
176
     1
290
     0
176
     1
 93
        1
176
     1
 44
50.0
176
     1
173
     0
176
     1
  0
VISUALSTYLE
  5
3A
102
{ACAD_REACTORS
330
2A
102
}
330
2A
100
AcDbVisualStyle
  2
ColorChange
 70
    16
177
     2
291
     1
 71
     2
176
     1
 72
     2
176
     1
 73
     3
176
     1
 90
        0
176
     1
 40
-0.6
176
     1
 41
-30.0
176
     1
 62
     5
 63
     8
421
  8421504
176
     1
 74
     1
176
     1
 91
        4
176
     1
 64
     7
176
     1
 65
   257
176
     1
 75
     1
176
     1
175
     1
176
     1
 42
1.0
176
     1
 92
        8
176
     1
 66
     8
424
  8421504
176
     1
 43
1.0
176
     1
 76
     1
176
     1
 77
     6
176
     1
 78
     2
176
     1
 67
     7
176
     1
 79
     5
176
     1
170
     0
176
     1
171
     0
176
     1
290
     0
176
     1
 93
        1
176
     1
 44
0.0
176
     1
173
     0
176
     1
  0
VISUALSTYLE
  5
34
102
{ACAD_REACTORS
330
2A
102
}
330
2A
100
AcDbVisualStyle
  2
Conceptual
 70
     9
177
     2
291
     0
 71
     3
176
     1
 72
     2
176
     1
 73
     0
176
     1
 90
        0
176
     1
 40
-0.6
176
     1
 41
-30.0
176
     1
 62
     5
 63
     7
421
 16777215
176
     1
 74
     2
176
     1
 91
        2
176
     1
 64
     7
176
     1
 65
   257
176
     1
 75
     1
176
     1
175
     1
176
     1
 42
40.0
176
     1
 92
        8
176
     1
 66
     7
176
     1
 43
1.0
176
     1
 76
     1
176
     1
 77
     6
176
     1
 78
     2
176
     1
 67
     7
176
     1
 79
     3
176
     1
170
     0
176
     1
171
     0
176
     1
290
     0
176
     1
 93
        1
176
     1
 44
0.0
176
     1
173
     0
176
     1
  0
VISUALSTYLE
  5
35
102
{ACAD_REACTORS
330
2A
102
}
330
2A
100
AcDbVisualStyle
  2
Dim
 70
    11
177
     2
291
     1
 71
     2
176
     1
 72
     2
176
     1
 73
     0
176
     1
 90
        0
176
     1
 40
-0.6
176
     1
 41
-30.0
176
     1
 62
     5
 63
     7
421
 16777215
176
     1
 74
     1
176
     1
 91
        4
176
     1
 64
     7
176
     1
 65
   257
176
     1
 75
     1
176
     1
175
     1
176
     1
 42
1.0
176
     1
 92
        8
176
     1
 66
     7
176
     1
 43
1.0
176
     1
 76
     1
176
     1
 77
     6
176
     1
 78
     2
176
     1
 67
     7
176
     1
 79
     5
176
     1
170
     0
176
     1
171
     0
176
     1
290
     0
176
     1
 93
        1
176
     1
 44
-50.0
176
     1
173
     0
176
     1
  0
VISUALSTYLE
  5
39
102
{ACAD_REACTORS
330
2A
102
}
330
2A
100
AcDbVisualStyle
  2
Facepattern
 70
    15
177
     2
291
     1
 71
     2
176
     1
 72
     2
176
     1
 73
     0
176
     1
 90
        0
176
     1
 40
-0.6
176
     1
 41
-30.0
176
     1
 62
     5
 63
     7
421
 16777215
176
     1
 74
     1
176
     1
 91
        4
176
     1
 64
     7
176
     1
 65
   257
176
     1
 75
     1
176
     1
175
     1
176
     1
 42
1.0
176
     1
 92
        8
176
     1
 66
     7
176
     1
 43
1.0
176
     1
 76
     1
176
     1
 77
     6
176
     1
 78
     2
176
     1
 67
     7
176
     1
 79
     5
176
     1
170
     0
176
     1
171
     0
176
     1
290
     0
176
     1
 93
        1
176
     1
 44
0.0
176
     1
173
     0
176
     1
  0
VISUALSTYLE
  5
2B
102
{ACAD_REACTORS
330
2A
102
}
330
2A
100
AcDbVisualStyle
  2
Flat
 70
     0
177
     2
291
     1
 71
     2
176
     1
 72
     1
176
     1
 73
     1
176
     1
 90
        2
176
     1
 40
-0.6
176
     1
 41
30.0
176
     1
 62
     5
 63
     7
421
 16777215
176
     1
 74
     0
176
     1
 91
        4
176
     1
 64
     7
176
     1
 65
   257
176
     1
 75
     1
176
     1
175
     1
176
     1
 42
1.0
176
     1
 92
        8
176
     1
 66
     7
176
     1
 43
1.0
176
     1
 76
     1
176
     1
 77
     6
176
     1
 78
     2
176
     1
 67
     7
176
     1
 79
     5
176
     1
170
     0
176
     1
171
     0
176
     1
290
     0
176
     1
 93
       13
176
     1
 44
0.0
176
     1
173
     0
176
     1
  0
VISUALSTYLE
  5
2C
102
{ACAD_REACTORS
330
2A
102
}
330
2A
100
AcDbVisualStyle
  2
FlatWithEdges
 70
     1
177
     2
291
     1
 71
     2
176
     1
 72
     1
176
     1
 73
     1
176
     1
 90
        2
176
     1
 40
-0.6
176
     1
 41
30.0
176
     1
 62
     5
 63
     7
421
 16777215
176
     1
 74
     1
176
     1
 91
        4
176
     1
 64
     7
176
     1
 65
   257
176
     1
 75
     1
176
     1
175
     1
176
     1
 42
1.0
176
     1
 92
        0
176
     1
 66
   257
176
     1
 43
1.0
176
     1
 76
     1
176
     1
 77
     6
176
     1
 78
     2
176
     1
 67
     7
176
     1
 79
     5
176
     1
170
     0
176
     1
171
     0
176
     1
290
     0
176
     1
 93
       13
176
     1
 44
0.0
176
     1
173
     0
176
     1
  0
VISUALSTYLE
  5
2D
102
{ACAD_REACTORS
330
2A
102
}
330
2A
100
AcDbVisualStyle
  2
Gouraud
 70
     2
177
     2
291
     1
 71
     2
176
     1
 72
     2
176
     1
 73
     1
176
     1
 90
        2
176
     1
 40
-0.6
176
     1
 41
30.0
176
     1
 62
     5
 63
     7
421
 16777215
176
     1
 74
     0
176
     1
 91
        4
176
     1
 64
     7
176
     1
 65
   257
176
     1
 75
     1
176
     1
175
     1
176
     1
 42
1.0
176
     1
 92
        0
176
     1
 66
     7
176
     1
 43
1.0
176
     1
 76
     1
176
     1
 77
     6
176
     1
 78
     2
176
     1
 67
     7
176
     1
 79
     5
176
     1
170
     0
176
     1
171
     0
176
     1
290
     0
176
     1
 93
       13
176
     1
 44
0.0
176
     1
173
     0
176
     1
  0
VISUALSTYLE
  5
2E
102
{ACAD_REACTORS
330
2A
102
}
330
2A
100
AcDbVisualStyle
  2
GouraudWithEdges
 70
     3
177
     2
291
     1
 71
     2
176
     1
 72
     2
176
     1
 73
     1
176
     1
 90
        2
176
     1
 40
-0.6
176
     1
 41
30.0
176
     1
 62
     5
 63
     7
421
 16777215
176
     1
 74
     1
176
     1
 91
        4
176
     1
 64
     7
176
     1
 65
   257
176
     1
 75
     1
176
     1
175
     1
176
     1
 42
1.0
176
     1
 92
        0
176
     1
 66
   257
176
     1
 43
1.0
176
     1
 76
     1
176
     1
 77
     6
176
     1
 78
     2
176
     1
 67
     7
176
     1
 79
     5
176
     1
170
     0
176
     1
171
     0
176
     1
290
     0
176
     1
 93
       13
176
     1
 44
0.0
176
     1
173
     0
176
     1
  0
VISUALSTYLE
  5
38
102
{ACAD_REACTORS
330
2A
102
}
330
2A
100
AcDbVisualStyle
  2
Linepattern
 70
    14
177
     2
291
     1
 71
     2
176
     1
 72
     2
176
     1
 73
     0
176
     1
 90
        0
176
     1
 40
-0.6
176
     1
 41
-30.0
176
     1
 62
     5
 63
     7
421
 16777215
176
     1
 74
     1
176
     1
 91
        4
176
     1
 64
     7
176
     1
 65
   257
176
     1
 75
     7
176
     1
175
     7
176
     1
 42
1.0
176
     1
 92
        8
176
     1
 66
     7
176
     1
 43
1.0
176
     1
 76
     1
176
     1
 77
     6
176
     1
 78
     2
176
     1
 67
     7
176
     1
 79
     5
176
     1
170
     0
176
     1
171
     0
176
     1
290
     0
176
     1
 93
        1
176
     1
 44
0.0
176
     1
173
     0
176
     1
  0
VISUALSTYLE
  5
33
102
{ACAD_REACTORS
330
2A
102
}
330
2A
100
AcDbVisualStyle
  2
Realistic
 70
     8
177
     2
291
     0
 71
     2
176
     1
 72
     2
176
     1
 73
     0
176
     1
 90
        0
176
     1
 40
-0.6
176
     1
 41
-30.0
176
     1
 62
     5
 63
     7
421
 16777215
176
     1
 74
     1
176
     1
 91
        0
176
     1
 64
     7
176
     1
 65
   257
176
     1
 75
     1
176
     1
175
     1
176
     1
 42
1.0
176
     1
 92
        8
176
     1
 66
     8
424
  7895160
176
     1
 43
1.0
176
     1
 76
     1
176
     1
 77
     6
176
     1
 78
     2
176
     1
 67
     7
176
     1
 79
     5
176
     1
170
     0
176
     1
171
     0
176
     1
290
     0
176
     1
 93
       13
176
     1
 44
0.0
176
     1
173
     0
176
     1
  0
VISUALSTYLE
  5
37
102
{ACAD_REACTORS
330
2A
102
}
330
2A
100
AcDbVisualStyle
  2
Thicken
 70
    13
177
     2
291
     1
 71
     2
176
     1
 72
     2
176
     1
 73
     0
176
     1
 90
        0
176
     1
 40
-0.6
176
     1
 41
-30.0
176
     1
 62
     5
 63
     7
421
 16777215
176
     1
 74
     1
176
     1
 91
        4
176
     1
 64
     7
176
     1
 65
   257
176
     1
 75
     1
176
     1
175
     1
176
     1
 42
1.0
176
     1
 92
       12
176
     1
 66
     7
176
     1
 43
1.0
176
     1
 76
     1
176
     1
 77
     6
176
     1
 78
     2
176
     1
 67
     7
176
     1
 79
     5
176
     1
170
     0
176
     1
171
     0
176
     1
290
     0
176
     1
 93
        1
176
     1
 44
0.0
176
     1
173
     0
176
     1
  0
ENDSEC
  0
EOF
